ISO-10303-21;
HEADER;
FILE_DESCRIPTION(('FreeCAD Model'),'2;1');
FILE_NAME('Open CASCADE Shape Model','2025-02-04T11:57:30',(''),(''),
  'Open CASCADE STEP processor 7.8','FreeCAD','Unknown');
FILE_SCHEMA(('AUTOMOTIVE_DESIGN { 1 0 10303 214 1 1 1 1 }'));
ENDSEC;
DATA;
#1 = APPLICATION_PROTOCOL_DEFINITION('international standard',
  'automotive_design',2000,#2);
#2 = APPLICATION_CONTEXT(
  'core data for automotive mechanical design processes');
#3 = SHAPE_DEFINITION_REPRESENTATION(#4,#10);
#4 = PRODUCT_DEFINITION_SHAPE('','',#5);
#5 = PRODUCT_DEFINITION('design','',#6,#9);
#6 = PRODUCT_DEFINITION_FORMATION('','',#7);
#7 = PRODUCT('C_1623927','C_1623927','',(#8));
#8 = PRODUCT_CONTEXT('',#2,'mechanical');
#9 = PRODUCT_DEFINITION_CONTEXT('part definition',#2,'design');
#10 = SHAPE_REPRESENTATION('',(#11,#15,#19,#23,#27,#31),#35);
#11 = AXIS2_PLACEMENT_3D('',#12,#13,#14);
#12 = CARTESIAN_POINT('',(0.,0.,0.));
#13 = DIRECTION('',(0.,0.,1.));
#14 = DIRECTION('',(1.,0.,-0.));
#15 = AXIS2_PLACEMENT_3D('',#16,#17,#18);
#16 = CARTESIAN_POINT('',(0.,0.,0.));
#17 = DIRECTION('',(0.,0.,1.));
#18 = DIRECTION('',(1.,0.,0.));
#19 = AXIS2_PLACEMENT_3D('',#20,#21,#22);
#20 = CARTESIAN_POINT('',(0.,0.,0.));
#21 = DIRECTION('',(0.,0.,1.));
#22 = DIRECTION('',(1.,0.,0.));
#23 = AXIS2_PLACEMENT_3D('',#24,#25,#26);
#24 = CARTESIAN_POINT('',(0.,0.,0.));
#25 = DIRECTION('',(0.,0.,1.));
#26 = DIRECTION('',(1.,0.,0.));
#27 = AXIS2_PLACEMENT_3D('',#28,#29,#30);
#28 = CARTESIAN_POINT('',(0.,0.,0.));
#29 = DIRECTION('',(0.,0.,1.));
#30 = DIRECTION('',(1.,0.,0.));
#31 = AXIS2_PLACEMENT_3D('',#32,#33,#34);
#32 = CARTESIAN_POINT('',(0.,0.,0.));
#33 = DIRECTION('',(0.,0.,1.));
#34 = DIRECTION('',(1.,0.,0.));
#35 = ( GEOMETRIC_REPRESENTATION_CONTEXT(3) 
GLOBAL_UNCERTAINTY_ASSIGNED_CONTEXT((#39)) GLOBAL_UNIT_ASSIGNED_CONTEXT(
(#36,#37,#38)) REPRESENTATION_CONTEXT('Context #1',
  '3D Context with UNIT and UNCERTAINTY') );
#36 = ( LENGTH_UNIT() NAMED_UNIT(*) SI_UNIT(.MILLI.,.METRE.) );
#37 = ( NAMED_UNIT(*) PLANE_ANGLE_UNIT() SI_UNIT($,.RADIAN.) );
#38 = ( NAMED_UNIT(*) SI_UNIT($,.STERADIAN.) SOLID_ANGLE_UNIT() );
#39 = UNCERTAINTY_MEASURE_WITH_UNIT(LENGTH_MEASURE(1.E-07),#36,
  'distance_accuracy_value','confusion accuracy');
#40 = PRODUCT_RELATED_PRODUCT_CATEGORY('part',$,(#7));
#41 = SHAPE_DEFINITION_REPRESENTATION(#42,#48);
#42 = PRODUCT_DEFINITION_SHAPE('','',#43);
#43 = PRODUCT_DEFINITION('design','',#44,#47);
#44 = PRODUCT_DEFINITION_FORMATION('','',#45);
#45 = PRODUCT('Body002','Body002','',(#46));
#46 = PRODUCT_CONTEXT('',#2,'mechanical');
#47 = PRODUCT_DEFINITION_CONTEXT('part definition',#2,'design');
#48 = ADVANCED_BREP_SHAPE_REPRESENTATION('',(#11,#49),#153);
#49 = MANIFOLD_SOLID_BREP('',#50);
#50 = CLOSED_SHELL('',(#51,#68,#93,#119,#144));
#51 = ADVANCED_FACE('',(#52),#63,.F.);
#52 = FACE_BOUND('',#53,.F.);
#53 = EDGE_LOOP('',(#54));
#54 = ORIENTED_EDGE('',*,*,#55,.T.);
#55 = EDGE_CURVE('',#56,#56,#58,.T.);
#56 = VERTEX_POINT('',#57);
#57 = CARTESIAN_POINT('',(-1.75,0.7,0.));
#58 = CIRCLE('',#59,0.225);
#59 = AXIS2_PLACEMENT_3D('',#60,#61,#62);
#60 = CARTESIAN_POINT('',(-1.75,0.925,0.));
#61 = DIRECTION('',(-1.,0.,0.));
#62 = DIRECTION('',(0.,-1.,0.));
#63 = PLANE('',#64);
#64 = AXIS2_PLACEMENT_3D('',#65,#66,#67);
#65 = CARTESIAN_POINT('',(-1.75,0.925,2.6852890458E-18));
#66 = DIRECTION('',(-1.,-0.,-0.));
#67 = DIRECTION('',(0.,0.,-1.));
#68 = ADVANCED_FACE('',(#69),#88,.T.);
#69 = FACE_BOUND('',#70,.T.);
#70 = EDGE_LOOP('',(#71,#79,#86,#87));
#71 = ORIENTED_EDGE('',*,*,#72,.T.);
#72 = EDGE_CURVE('',#56,#73,#75,.T.);
#73 = VERTEX_POINT('',#74);
#74 = CARTESIAN_POINT('',(-3.,0.7,0.));
#75 = LINE('',#76,#77);
#76 = CARTESIAN_POINT('',(-1.75,0.7,0.));
#77 = VECTOR('',#78,1.);
#78 = DIRECTION('',(-1.,0.,0.));
#79 = ORIENTED_EDGE('',*,*,#80,.F.);
#80 = EDGE_CURVE('',#73,#73,#81,.T.);
#81 = CIRCLE('',#82,0.225);
#82 = AXIS2_PLACEMENT_3D('',#83,#84,#85);
#83 = CARTESIAN_POINT('',(-3.,0.925,0.));
#84 = DIRECTION('',(-1.,0.,0.));
#85 = DIRECTION('',(0.,-1.,0.));
#86 = ORIENTED_EDGE('',*,*,#72,.F.);
#87 = ORIENTED_EDGE('',*,*,#55,.T.);
#88 = CYLINDRICAL_SURFACE('',#89,0.225);
#89 = AXIS2_PLACEMENT_3D('',#90,#91,#92);
#90 = CARTESIAN_POINT('',(-1.75,0.925,0.));
#91 = DIRECTION('',(-1.,0.,0.));
#92 = DIRECTION('',(0.,-1.,0.));
#93 = ADVANCED_FACE('',(#94),#114,.T.);
#94 = FACE_BOUND('',#95,.T.);
#95 = EDGE_LOOP('',(#96,#105,#112,#113));
#96 = ORIENTED_EDGE('',*,*,#97,.T.);
#97 = EDGE_CURVE('',#73,#98,#100,.T.);
#98 = VERTEX_POINT('',#99);
#99 = CARTESIAN_POINT('',(-3.275,0.425,0.));
#100 = CIRCLE('',#101,0.275);
#101 = AXIS2_PLACEMENT_3D('',#102,#103,#104);
#102 = CARTESIAN_POINT('',(-3.,0.425,8.266365894245E-17));
#103 = DIRECTION('',(0.,0.,1.));
#104 = DIRECTION('',(1.,0.,0.));
#105 = ORIENTED_EDGE('',*,*,#106,.T.);
#106 = EDGE_CURVE('',#98,#98,#107,.T.);
#107 = CIRCLE('',#108,0.225);
#108 = AXIS2_PLACEMENT_3D('',#109,#110,#111);
#109 = CARTESIAN_POINT('',(-3.5,0.425,0.));
#110 = DIRECTION('',(1.224646799147E-16,1.,-0.));
#111 = DIRECTION('',(-1.,1.224646799147E-16,0.));
#112 = ORIENTED_EDGE('',*,*,#97,.F.);
#113 = ORIENTED_EDGE('',*,*,#80,.T.);
#114 = TOROIDAL_SURFACE('',#115,0.5,0.225);
#115 = AXIS2_PLACEMENT_3D('',#116,#117,#118);
#116 = CARTESIAN_POINT('',(-3.,0.425,0.));
#117 = DIRECTION('',(0.,0.,1.));
#118 = DIRECTION('',(1.,0.,0.));
#119 = ADVANCED_FACE('',(#120),#139,.T.);
#120 = FACE_BOUND('',#121,.T.);
#121 = EDGE_LOOP('',(#122,#130,#137,#138));
#122 = ORIENTED_EDGE('',*,*,#123,.T.);
#123 = EDGE_CURVE('',#98,#124,#126,.T.);
#124 = VERTEX_POINT('',#125);
#125 = CARTESIAN_POINT('',(-3.275,-3.6,0.));
#126 = LINE('',#127,#128);
#127 = CARTESIAN_POINT('',(-3.275,0.425,0.));
#128 = VECTOR('',#129,1.);
#129 = DIRECTION('',(0.,-1.,0.));
#130 = ORIENTED_EDGE('',*,*,#131,.F.);
#131 = EDGE_CURVE('',#124,#124,#132,.T.);
#132 = CIRCLE('',#133,0.225);
#133 = AXIS2_PLACEMENT_3D('',#134,#135,#136);
#134 = CARTESIAN_POINT('',(-3.5,-3.6,0.));
#135 = DIRECTION('',(0.,-1.,0.));
#136 = DIRECTION('',(1.,0.,0.));
#137 = ORIENTED_EDGE('',*,*,#123,.F.);
#138 = ORIENTED_EDGE('',*,*,#106,.F.);
#139 = CYLINDRICAL_SURFACE('',#140,0.225);
#140 = AXIS2_PLACEMENT_3D('',#141,#142,#143);
#141 = CARTESIAN_POINT('',(-3.5,0.425,0.));
#142 = DIRECTION('',(0.,-1.,0.));
#143 = DIRECTION('',(1.,0.,0.));
#144 = ADVANCED_FACE('',(#145),#148,.T.);
#145 = FACE_BOUND('',#146,.T.);
#146 = EDGE_LOOP('',(#147));
#147 = ORIENTED_EDGE('',*,*,#131,.T.);
#148 = PLANE('',#149);
#149 = AXIS2_PLACEMENT_3D('',#150,#151,#152);
#150 = CARTESIAN_POINT('',(-3.5,-3.6,-9.184850993605E-18));
#151 = DIRECTION('',(-0.,-1.,-0.));
#152 = DIRECTION('',(0.,0.,-1.));
#153 = ( GEOMETRIC_REPRESENTATION_CONTEXT(3) 
GLOBAL_UNCERTAINTY_ASSIGNED_CONTEXT((#157)) GLOBAL_UNIT_ASSIGNED_CONTEXT
((#154,#155,#156)) REPRESENTATION_CONTEXT('Context #1',
  '3D Context with UNIT and UNCERTAINTY') );
#154 = ( LENGTH_UNIT() NAMED_UNIT(*) SI_UNIT(.MILLI.,.METRE.) );
#155 = ( NAMED_UNIT(*) PLANE_ANGLE_UNIT() SI_UNIT($,.RADIAN.) );
#156 = ( NAMED_UNIT(*) SI_UNIT($,.STERADIAN.) SOLID_ANGLE_UNIT() );
#157 = UNCERTAINTY_MEASURE_WITH_UNIT(LENGTH_MEASURE(1.E-07),#154,
  'distance_accuracy_value','confusion accuracy');
#158 = CONTEXT_DEPENDENT_SHAPE_REPRESENTATION(#159,#161);
#159 = ( REPRESENTATION_RELATIONSHIP('','',#48,#10) 
REPRESENTATION_RELATIONSHIP_WITH_TRANSFORMATION(#160) 
SHAPE_REPRESENTATION_RELATIONSHIP() );
#160 = ITEM_DEFINED_TRANSFORMATION('','',#11,#15);
#161 = PRODUCT_DEFINITION_SHAPE('Placement','Placement of an item',#162
  );
#162 = NEXT_ASSEMBLY_USAGE_OCCURRENCE('6','Body002','',#5,#43,$);
#163 = PRODUCT_RELATED_PRODUCT_CATEGORY('part',$,(#45));
#164 = SHAPE_DEFINITION_REPRESENTATION(#165,#171);
#165 = PRODUCT_DEFINITION_SHAPE('','',#166);
#166 = PRODUCT_DEFINITION('design','',#167,#170);
#167 = PRODUCT_DEFINITION_FORMATION('','',#168);
#168 = PRODUCT('Body002 (Mirror #2)','Body002 (Mirror #2)','',(#169));
#169 = PRODUCT_CONTEXT('',#2,'mechanical');
#170 = PRODUCT_DEFINITION_CONTEXT('part definition',#2,'design');
#171 = ADVANCED_BREP_SHAPE_REPRESENTATION('',(#11,#172),#276);
#172 = MANIFOLD_SOLID_BREP('',#173);
#173 = CLOSED_SHELL('',(#174,#191,#216,#242,#267));
#174 = ADVANCED_FACE('',(#175),#186,.F.);
#175 = FACE_BOUND('',#176,.T.);
#176 = EDGE_LOOP('',(#177));
#177 = ORIENTED_EDGE('',*,*,#178,.T.);
#178 = EDGE_CURVE('',#179,#179,#181,.T.);
#179 = VERTEX_POINT('',#180);
#180 = CARTESIAN_POINT('',(1.75,0.7,0.));
#181 = CIRCLE('',#182,0.225);
#182 = AXIS2_PLACEMENT_3D('',#183,#184,#185);
#183 = CARTESIAN_POINT('',(1.75,0.925,0.));
#184 = DIRECTION('',(-1.,0.,0.));
#185 = DIRECTION('',(-0.,-1.,-0.));
#186 = PLANE('',#187);
#187 = AXIS2_PLACEMENT_3D('',#188,#189,#190);
#188 = CARTESIAN_POINT('',(1.75,0.925,2.6852890458E-18));
#189 = DIRECTION('',(1.,-0.,-0.));
#190 = DIRECTION('',(0.,0.,1.));
#191 = ADVANCED_FACE('',(#192),#211,.T.);
#192 = FACE_BOUND('',#193,.F.);
#193 = EDGE_LOOP('',(#194,#202,#209,#210));
#194 = ORIENTED_EDGE('',*,*,#195,.T.);
#195 = EDGE_CURVE('',#179,#196,#198,.T.);
#196 = VERTEX_POINT('',#197);
#197 = CARTESIAN_POINT('',(3.,0.7,0.));
#198 = LINE('',#199,#200);
#199 = CARTESIAN_POINT('',(1.75,0.7,0.));
#200 = VECTOR('',#201,1.);
#201 = DIRECTION('',(1.,-0.,-0.));
#202 = ORIENTED_EDGE('',*,*,#203,.F.);
#203 = EDGE_CURVE('',#196,#196,#204,.T.);
#204 = CIRCLE('',#205,0.225);
#205 = AXIS2_PLACEMENT_3D('',#206,#207,#208);
#206 = CARTESIAN_POINT('',(3.,0.925,0.));
#207 = DIRECTION('',(-1.,0.,0.));
#208 = DIRECTION('',(-0.,-1.,-0.));
#209 = ORIENTED_EDGE('',*,*,#195,.F.);
#210 = ORIENTED_EDGE('',*,*,#178,.T.);
#211 = CYLINDRICAL_SURFACE('',#212,0.225);
#212 = AXIS2_PLACEMENT_3D('',#213,#214,#215);
#213 = CARTESIAN_POINT('',(1.75,0.925,0.));
#214 = DIRECTION('',(1.,-0.,-0.));
#215 = DIRECTION('',(-0.,-1.,-0.));
#216 = ADVANCED_FACE('',(#217),#237,.T.);
#217 = FACE_BOUND('',#218,.F.);
#218 = EDGE_LOOP('',(#219,#228,#235,#236));
#219 = ORIENTED_EDGE('',*,*,#220,.T.);
#220 = EDGE_CURVE('',#196,#221,#223,.T.);
#221 = VERTEX_POINT('',#222);
#222 = CARTESIAN_POINT('',(3.275,0.425,0.));
#223 = CIRCLE('',#224,0.275);
#224 = AXIS2_PLACEMENT_3D('',#225,#226,#227);
#225 = CARTESIAN_POINT('',(3.,0.425,8.266365894245E-17));
#226 = DIRECTION('',(0.,0.,-1.));
#227 = DIRECTION('',(-1.,-0.,-0.));
#228 = ORIENTED_EDGE('',*,*,#229,.F.);
#229 = EDGE_CURVE('',#221,#221,#230,.T.);
#230 = CIRCLE('',#231,0.225);
#231 = AXIS2_PLACEMENT_3D('',#232,#233,#234);
#232 = CARTESIAN_POINT('',(3.5,0.425,0.));
#233 = DIRECTION('',(1.224646799147E-16,-1.,0.));
#234 = DIRECTION('',(1.,1.224646799147E-16,-0.));
#235 = ORIENTED_EDGE('',*,*,#220,.F.);
#236 = ORIENTED_EDGE('',*,*,#203,.F.);
#237 = TOROIDAL_SURFACE('',#238,0.5,0.225);
#238 = AXIS2_PLACEMENT_3D('',#239,#240,#241);
#239 = CARTESIAN_POINT('',(3.,0.425,0.));
#240 = DIRECTION('',(-0.,-0.,1.));
#241 = DIRECTION('',(-1.,-0.,-0.));
#242 = ADVANCED_FACE('',(#243),#262,.T.);
#243 = FACE_BOUND('',#244,.F.);
#244 = EDGE_LOOP('',(#245,#253,#260,#261));
#245 = ORIENTED_EDGE('',*,*,#246,.T.);
#246 = EDGE_CURVE('',#221,#247,#249,.T.);
#247 = VERTEX_POINT('',#248);
#248 = CARTESIAN_POINT('',(3.275,-3.6,0.));
#249 = LINE('',#250,#251);
#250 = CARTESIAN_POINT('',(3.275,0.425,0.));
#251 = VECTOR('',#252,1.);
#252 = DIRECTION('',(-0.,-1.,-0.));
#253 = ORIENTED_EDGE('',*,*,#254,.F.);
#254 = EDGE_CURVE('',#247,#247,#255,.T.);
#255 = CIRCLE('',#256,0.225);
#256 = AXIS2_PLACEMENT_3D('',#257,#258,#259);
#257 = CARTESIAN_POINT('',(3.5,-3.6,0.));
#258 = DIRECTION('',(-0.,1.,0.));
#259 = DIRECTION('',(-1.,-0.,-0.));
#260 = ORIENTED_EDGE('',*,*,#246,.F.);
#261 = ORIENTED_EDGE('',*,*,#229,.F.);
#262 = CYLINDRICAL_SURFACE('',#263,0.225);
#263 = AXIS2_PLACEMENT_3D('',#264,#265,#266);
#264 = CARTESIAN_POINT('',(3.5,0.425,0.));
#265 = DIRECTION('',(-0.,-1.,-0.));
#266 = DIRECTION('',(-1.,-0.,-0.));
#267 = ADVANCED_FACE('',(#268),#271,.T.);
#268 = FACE_BOUND('',#269,.F.);
#269 = EDGE_LOOP('',(#270));
#270 = ORIENTED_EDGE('',*,*,#254,.T.);
#271 = PLANE('',#272);
#272 = AXIS2_PLACEMENT_3D('',#273,#274,#275);
#273 = CARTESIAN_POINT('',(3.5,-3.6,-9.184850993605E-18));
#274 = DIRECTION('',(0.,-1.,-0.));
#275 = DIRECTION('',(0.,0.,1.));
#276 = ( GEOMETRIC_REPRESENTATION_CONTEXT(3) 
GLOBAL_UNCERTAINTY_ASSIGNED_CONTEXT((#280)) GLOBAL_UNIT_ASSIGNED_CONTEXT
((#277,#278,#279)) REPRESENTATION_CONTEXT('Context #1',
  '3D Context with UNIT and UNCERTAINTY') );
#277 = ( LENGTH_UNIT() NAMED_UNIT(*) SI_UNIT(.MILLI.,.METRE.) );
#278 = ( NAMED_UNIT(*) PLANE_ANGLE_UNIT() SI_UNIT($,.RADIAN.) );
#279 = ( NAMED_UNIT(*) SI_UNIT($,.STERADIAN.) SOLID_ANGLE_UNIT() );
#280 = UNCERTAINTY_MEASURE_WITH_UNIT(LENGTH_MEASURE(1.E-07),#277,
  'distance_accuracy_value','confusion accuracy');
#281 = CONTEXT_DEPENDENT_SHAPE_REPRESENTATION(#282,#284);
#282 = ( REPRESENTATION_RELATIONSHIP('','',#171,#10) 
REPRESENTATION_RELATIONSHIP_WITH_TRANSFORMATION(#283) 
SHAPE_REPRESENTATION_RELATIONSHIP() );
#283 = ITEM_DEFINED_TRANSFORMATION('','',#11,#19);
#284 = PRODUCT_DEFINITION_SHAPE('Placement','Placement of an item',#285
  );
#285 = NEXT_ASSEMBLY_USAGE_OCCURRENCE('7','Body002 (Mirror #2)','',#5,
  #166,$);
#286 = PRODUCT_RELATED_PRODUCT_CATEGORY('part',$,(#168));
#287 = SHAPE_DEFINITION_REPRESENTATION(#288,#294);
#288 = PRODUCT_DEFINITION_SHAPE('','',#289);
#289 = PRODUCT_DEFINITION('design','',#290,#293);
#290 = PRODUCT_DEFINITION_FORMATION('','',#291);
#291 = PRODUCT('Body001','Body001','',(#292));
#292 = PRODUCT_CONTEXT('',#2,'mechanical');
#293 = PRODUCT_DEFINITION_CONTEXT('part definition',#2,'design');
#294 = ADVANCED_BREP_SHAPE_REPRESENTATION('',(#11,#295),#348);
#295 = MANIFOLD_SOLID_BREP('',#296);
#296 = CLOSED_SHELL('',(#297,#330,#339));
#297 = ADVANCED_FACE('',(#298),#325,.T.);
#298 = FACE_BOUND('',#299,.F.);
#299 = EDGE_LOOP('',(#300,#309,#317,#324));
#300 = ORIENTED_EDGE('',*,*,#301,.F.);
#301 = EDGE_CURVE('',#302,#302,#304,.T.);
#302 = VERTEX_POINT('',#303);
#303 = CARTESIAN_POINT('',(-1.,1.8,0.));
#304 = CIRCLE('',#305,0.875);
#305 = AXIS2_PLACEMENT_3D('',#306,#307,#308);
#306 = CARTESIAN_POINT('',(-1.,0.925,0.));
#307 = DIRECTION('',(1.,0.,0.));
#308 = DIRECTION('',(0.,1.,0.));
#309 = ORIENTED_EDGE('',*,*,#310,.T.);
#310 = EDGE_CURVE('',#302,#311,#313,.T.);
#311 = VERTEX_POINT('',#312);
#312 = CARTESIAN_POINT('',(1.,1.8,0.));
#313 = LINE('',#314,#315);
#314 = CARTESIAN_POINT('',(-1.,1.8,0.));
#315 = VECTOR('',#316,1.);
#316 = DIRECTION('',(1.,0.,0.));
#317 = ORIENTED_EDGE('',*,*,#318,.F.);
#318 = EDGE_CURVE('',#311,#311,#319,.T.);
#319 = CIRCLE('',#320,0.875);
#320 = AXIS2_PLACEMENT_3D('',#321,#322,#323);
#321 = CARTESIAN_POINT('',(1.,0.925,0.));
#322 = DIRECTION('',(-1.,0.,0.));
#323 = DIRECTION('',(0.,1.,0.));
#324 = ORIENTED_EDGE('',*,*,#310,.F.);
#325 = CYLINDRICAL_SURFACE('',#326,0.875);
#326 = AXIS2_PLACEMENT_3D('',#327,#328,#329);
#327 = CARTESIAN_POINT('',(-1.,0.925,0.));
#328 = DIRECTION('',(-1.,-0.,-0.));
#329 = DIRECTION('',(0.,1.,0.));
#330 = ADVANCED_FACE('',(#331),#334,.F.);
#331 = FACE_BOUND('',#332,.F.);
#332 = EDGE_LOOP('',(#333));
#333 = ORIENTED_EDGE('',*,*,#301,.T.);
#334 = PLANE('',#335);
#335 = AXIS2_PLACEMENT_3D('',#336,#337,#338);
#336 = CARTESIAN_POINT('',(-1.,0.925,-4.E-17));
#337 = DIRECTION('',(1.,0.,0.));
#338 = DIRECTION('',(0.,0.,1.));
#339 = ADVANCED_FACE('',(#340),#343,.T.);
#340 = FACE_BOUND('',#341,.F.);
#341 = EDGE_LOOP('',(#342));
#342 = ORIENTED_EDGE('',*,*,#318,.T.);
#343 = PLANE('',#344);
#344 = AXIS2_PLACEMENT_3D('',#345,#346,#347);
#345 = CARTESIAN_POINT('',(1.,0.925,0.));
#346 = DIRECTION('',(1.,0.,0.));
#347 = DIRECTION('',(-0.,1.,-0.));
#348 = ( GEOMETRIC_REPRESENTATION_CONTEXT(3) 
GLOBAL_UNCERTAINTY_ASSIGNED_CONTEXT((#352)) GLOBAL_UNIT_ASSIGNED_CONTEXT
((#349,#350,#351)) REPRESENTATION_CONTEXT('Context #1',
  '3D Context with UNIT and UNCERTAINTY') );
#349 = ( LENGTH_UNIT() NAMED_UNIT(*) SI_UNIT(.MILLI.,.METRE.) );
#350 = ( NAMED_UNIT(*) PLANE_ANGLE_UNIT() SI_UNIT($,.RADIAN.) );
#351 = ( NAMED_UNIT(*) SI_UNIT($,.STERADIAN.) SOLID_ANGLE_UNIT() );
#352 = UNCERTAINTY_MEASURE_WITH_UNIT(LENGTH_MEASURE(1.E-07),#349,
  'distance_accuracy_value','confusion accuracy');
#353 = CONTEXT_DEPENDENT_SHAPE_REPRESENTATION(#354,#356);
#354 = ( REPRESENTATION_RELATIONSHIP('','',#294,#10) 
REPRESENTATION_RELATIONSHIP_WITH_TRANSFORMATION(#355) 
SHAPE_REPRESENTATION_RELATIONSHIP() );
#355 = ITEM_DEFINED_TRANSFORMATION('','',#11,#23);
#356 = PRODUCT_DEFINITION_SHAPE('Placement','Placement of an item',#357
  );
#357 = NEXT_ASSEMBLY_USAGE_OCCURRENCE('8','Body001','',#5,#289,$);
#358 = PRODUCT_RELATED_PRODUCT_CATEGORY('part',$,(#291));
#359 = SHAPE_DEFINITION_REPRESENTATION(#360,#366);
#360 = PRODUCT_DEFINITION_SHAPE('','',#361);
#361 = PRODUCT_DEFINITION('design','',#362,#365);
#362 = PRODUCT_DEFINITION_FORMATION('','',#363);
#363 = PRODUCT('Body','Body','',(#364));
#364 = PRODUCT_CONTEXT('',#2,'mechanical');
#365 = PRODUCT_DEFINITION_CONTEXT('part definition',#2,'design');
#366 = ADVANCED_BREP_SHAPE_REPRESENTATION('',(#11,#367),#472);
#367 = MANIFOLD_SOLID_BREP('',#368);
#368 = CLOSED_SHELL('',(#369,#386,#412,#437,#463));
#369 = ADVANCED_FACE('',(#370),#381,.T.);
#370 = FACE_BOUND('',#371,.F.);
#371 = EDGE_LOOP('',(#372));
#372 = ORIENTED_EDGE('',*,*,#373,.F.);
#373 = EDGE_CURVE('',#374,#374,#376,.T.);
#374 = VERTEX_POINT('',#375);
#375 = CARTESIAN_POINT('',(-1.75,5.E-02,0.));
#376 = CIRCLE('',#377,0.875);
#377 = AXIS2_PLACEMENT_3D('',#378,#379,#380);
#378 = CARTESIAN_POINT('',(-1.75,0.925,0.));
#379 = DIRECTION('',(-1.,0.,0.));
#380 = DIRECTION('',(0.,-1.,0.));
#381 = PLANE('',#382);
#382 = AXIS2_PLACEMENT_3D('',#383,#384,#385);
#383 = CARTESIAN_POINT('',(-1.75,0.925,0.));
#384 = DIRECTION('',(-1.,-0.,-0.));
#385 = DIRECTION('',(-0.,-1.,-0.));
#386 = ADVANCED_FACE('',(#387),#407,.T.);
#387 = FACE_BOUND('',#388,.F.);
#388 = EDGE_LOOP('',(#389,#398,#399,#400));
#389 = ORIENTED_EDGE('',*,*,#390,.F.);
#390 = EDGE_CURVE('',#374,#391,#393,.T.);
#391 = VERTEX_POINT('',#392);
#392 = CARTESIAN_POINT('',(-1.7,0.,0.));
#393 = CIRCLE('',#394,5.E-02);
#394 = AXIS2_PLACEMENT_3D('',#395,#396,#397);
#395 = CARTESIAN_POINT('',(-1.7,5.E-02,0.));
#396 = DIRECTION('',(-0.,0.,1.));
#397 = DIRECTION('',(0.,-1.,0.));
#398 = ORIENTED_EDGE('',*,*,#373,.F.);
#399 = ORIENTED_EDGE('',*,*,#390,.T.);
#400 = ORIENTED_EDGE('',*,*,#401,.T.);
#401 = EDGE_CURVE('',#391,#391,#402,.T.);
#402 = CIRCLE('',#403,0.925);
#403 = AXIS2_PLACEMENT_3D('',#404,#405,#406);
#404 = CARTESIAN_POINT('',(-1.7,0.925,0.));
#405 = DIRECTION('',(-1.,0.,0.));
#406 = DIRECTION('',(0.,-1.,0.));
#407 = TOROIDAL_SURFACE('',#408,0.875,5.E-02);
#408 = AXIS2_PLACEMENT_3D('',#409,#410,#411);
#409 = CARTESIAN_POINT('',(-1.7,0.925,0.));
#410 = DIRECTION('',(1.,0.,0.));
#411 = DIRECTION('',(0.,-1.,0.));
#412 = ADVANCED_FACE('',(#413),#432,.T.);
#413 = FACE_BOUND('',#414,.F.);
#414 = EDGE_LOOP('',(#415,#423,#424,#425));
#415 = ORIENTED_EDGE('',*,*,#416,.F.);
#416 = EDGE_CURVE('',#391,#417,#419,.T.);
#417 = VERTEX_POINT('',#418);
#418 = CARTESIAN_POINT('',(-1.05,0.,0.));
#419 = LINE('',#420,#421);
#420 = CARTESIAN_POINT('',(-1.75,0.,0.));
#421 = VECTOR('',#422,1.);
#422 = DIRECTION('',(1.,0.,0.));
#423 = ORIENTED_EDGE('',*,*,#401,.T.);
#424 = ORIENTED_EDGE('',*,*,#416,.T.);
#425 = ORIENTED_EDGE('',*,*,#426,.F.);
#426 = EDGE_CURVE('',#417,#417,#427,.T.);
#427 = CIRCLE('',#428,0.925);
#428 = AXIS2_PLACEMENT_3D('',#429,#430,#431);
#429 = CARTESIAN_POINT('',(-1.05,0.925,0.));
#430 = DIRECTION('',(-1.,0.,0.));
#431 = DIRECTION('',(0.,-1.,0.));
#432 = CYLINDRICAL_SURFACE('',#433,0.925);
#433 = AXIS2_PLACEMENT_3D('',#434,#435,#436);
#434 = CARTESIAN_POINT('',(-1.75,0.925,0.));
#435 = DIRECTION('',(1.,0.,0.));
#436 = DIRECTION('',(0.,-1.,0.));
#437 = ADVANCED_FACE('',(#438),#458,.T.);
#438 = FACE_BOUND('',#439,.F.);
#439 = EDGE_LOOP('',(#440,#449,#450,#451));
#440 = ORIENTED_EDGE('',*,*,#441,.F.);
#441 = EDGE_CURVE('',#417,#442,#444,.T.);
#442 = VERTEX_POINT('',#443);
#443 = CARTESIAN_POINT('',(-1.,5.E-02,0.));
#444 = CIRCLE('',#445,5.E-02);
#445 = AXIS2_PLACEMENT_3D('',#446,#447,#448);
#446 = CARTESIAN_POINT('',(-1.05,5.E-02,0.));
#447 = DIRECTION('',(-0.,0.,1.));
#448 = DIRECTION('',(0.,-1.,0.));
#449 = ORIENTED_EDGE('',*,*,#426,.F.);
#450 = ORIENTED_EDGE('',*,*,#441,.T.);
#451 = ORIENTED_EDGE('',*,*,#452,.T.);
#452 = EDGE_CURVE('',#442,#442,#453,.T.);
#453 = CIRCLE('',#454,0.875);
#454 = AXIS2_PLACEMENT_3D('',#455,#456,#457);
#455 = CARTESIAN_POINT('',(-1.,0.925,0.));
#456 = DIRECTION('',(-1.,0.,0.));
#457 = DIRECTION('',(0.,-1.,0.));
#458 = TOROIDAL_SURFACE('',#459,0.875,5.E-02);
#459 = AXIS2_PLACEMENT_3D('',#460,#461,#462);
#460 = CARTESIAN_POINT('',(-1.05,0.925,0.));
#461 = DIRECTION('',(1.,0.,0.));
#462 = DIRECTION('',(0.,-1.,0.));
#463 = ADVANCED_FACE('',(#464),#467,.F.);
#464 = FACE_BOUND('',#465,.F.);
#465 = EDGE_LOOP('',(#466));
#466 = ORIENTED_EDGE('',*,*,#452,.T.);
#467 = PLANE('',#468);
#468 = AXIS2_PLACEMENT_3D('',#469,#470,#471);
#469 = CARTESIAN_POINT('',(-1.,0.925,0.));
#470 = DIRECTION('',(-1.,-0.,-0.));
#471 = DIRECTION('',(0.,-1.,0.));
#472 = ( GEOMETRIC_REPRESENTATION_CONTEXT(3) 
GLOBAL_UNCERTAINTY_ASSIGNED_CONTEXT((#476)) GLOBAL_UNIT_ASSIGNED_CONTEXT
((#473,#474,#475)) REPRESENTATION_CONTEXT('Context #1',
  '3D Context with UNIT and UNCERTAINTY') );
#473 = ( LENGTH_UNIT() NAMED_UNIT(*) SI_UNIT(.MILLI.,.METRE.) );
#474 = ( NAMED_UNIT(*) PLANE_ANGLE_UNIT() SI_UNIT($,.RADIAN.) );
#475 = ( NAMED_UNIT(*) SI_UNIT($,.STERADIAN.) SOLID_ANGLE_UNIT() );
#476 = UNCERTAINTY_MEASURE_WITH_UNIT(LENGTH_MEASURE(1.E-07),#473,
  'distance_accuracy_value','confusion accuracy');
#477 = CONTEXT_DEPENDENT_SHAPE_REPRESENTATION(#478,#480);
#478 = ( REPRESENTATION_RELATIONSHIP('','',#366,#10) 
REPRESENTATION_RELATIONSHIP_WITH_TRANSFORMATION(#479) 
SHAPE_REPRESENTATION_RELATIONSHIP() );
#479 = ITEM_DEFINED_TRANSFORMATION('','',#11,#27);
#480 = PRODUCT_DEFINITION_SHAPE('Placement','Placement of an item',#481
  );
#481 = NEXT_ASSEMBLY_USAGE_OCCURRENCE('9','Body','',#5,#361,$);
#482 = PRODUCT_RELATED_PRODUCT_CATEGORY('part',$,(#363));
#483 = SHAPE_DEFINITION_REPRESENTATION(#484,#490);
#484 = PRODUCT_DEFINITION_SHAPE('','',#485);
#485 = PRODUCT_DEFINITION('design','',#486,#489);
#486 = PRODUCT_DEFINITION_FORMATION('','',#487);
#487 = PRODUCT('Body (Mirror #1)','Body (Mirror #1)','',(#488));
#488 = PRODUCT_CONTEXT('',#2,'mechanical');
#489 = PRODUCT_DEFINITION_CONTEXT('part definition',#2,'design');
#490 = ADVANCED_BREP_SHAPE_REPRESENTATION('',(#11,#491),#596);
#491 = MANIFOLD_SOLID_BREP('',#492);
#492 = CLOSED_SHELL('',(#493,#510,#536,#561,#587));
#493 = ADVANCED_FACE('',(#494),#505,.T.);
#494 = FACE_BOUND('',#495,.T.);
#495 = EDGE_LOOP('',(#496));
#496 = ORIENTED_EDGE('',*,*,#497,.F.);
#497 = EDGE_CURVE('',#498,#498,#500,.T.);
#498 = VERTEX_POINT('',#499);
#499 = CARTESIAN_POINT('',(1.75,5.E-02,0.));
#500 = CIRCLE('',#501,0.875);
#501 = AXIS2_PLACEMENT_3D('',#502,#503,#504);
#502 = CARTESIAN_POINT('',(1.75,0.925,0.));
#503 = DIRECTION('',(-1.,0.,0.));
#504 = DIRECTION('',(-0.,-1.,-0.));
#505 = PLANE('',#506);
#506 = AXIS2_PLACEMENT_3D('',#507,#508,#509);
#507 = CARTESIAN_POINT('',(1.75,0.925,0.));
#508 = DIRECTION('',(1.,0.,0.));
#509 = DIRECTION('',(0.,1.,0.));
#510 = ADVANCED_FACE('',(#511),#531,.T.);
#511 = FACE_BOUND('',#512,.T.);
#512 = EDGE_LOOP('',(#513,#522,#523,#524));
#513 = ORIENTED_EDGE('',*,*,#514,.F.);
#514 = EDGE_CURVE('',#498,#515,#517,.T.);
#515 = VERTEX_POINT('',#516);
#516 = CARTESIAN_POINT('',(1.7,0.,0.));
#517 = CIRCLE('',#518,5.E-02);
#518 = AXIS2_PLACEMENT_3D('',#519,#520,#521);
#519 = CARTESIAN_POINT('',(1.7,5.E-02,0.));
#520 = DIRECTION('',(0.,0.,-1.));
#521 = DIRECTION('',(0.,-1.,-0.));
#522 = ORIENTED_EDGE('',*,*,#497,.T.);
#523 = ORIENTED_EDGE('',*,*,#514,.T.);
#524 = ORIENTED_EDGE('',*,*,#525,.F.);
#525 = EDGE_CURVE('',#515,#515,#526,.T.);
#526 = CIRCLE('',#527,0.925);
#527 = AXIS2_PLACEMENT_3D('',#528,#529,#530);
#528 = CARTESIAN_POINT('',(1.7,0.925,0.));
#529 = DIRECTION('',(-1.,0.,0.));
#530 = DIRECTION('',(-0.,-1.,-0.));
#531 = TOROIDAL_SURFACE('',#532,0.875,5.E-02);
#532 = AXIS2_PLACEMENT_3D('',#533,#534,#535);
#533 = CARTESIAN_POINT('',(1.7,0.925,0.));
#534 = DIRECTION('',(-1.,-0.,-0.));
#535 = DIRECTION('',(0.,-1.,0.));
#536 = ADVANCED_FACE('',(#537),#556,.T.);
#537 = FACE_BOUND('',#538,.T.);
#538 = EDGE_LOOP('',(#539,#547,#548,#549));
#539 = ORIENTED_EDGE('',*,*,#540,.F.);
#540 = EDGE_CURVE('',#515,#541,#543,.T.);
#541 = VERTEX_POINT('',#542);
#542 = CARTESIAN_POINT('',(1.05,0.,0.));
#543 = LINE('',#544,#545);
#544 = CARTESIAN_POINT('',(1.75,0.,0.));
#545 = VECTOR('',#546,1.);
#546 = DIRECTION('',(-1.,-0.,-0.));
#547 = ORIENTED_EDGE('',*,*,#525,.T.);
#548 = ORIENTED_EDGE('',*,*,#540,.T.);
#549 = ORIENTED_EDGE('',*,*,#550,.F.);
#550 = EDGE_CURVE('',#541,#541,#551,.T.);
#551 = CIRCLE('',#552,0.925);
#552 = AXIS2_PLACEMENT_3D('',#553,#554,#555);
#553 = CARTESIAN_POINT('',(1.05,0.925,0.));
#554 = DIRECTION('',(-1.,0.,0.));
#555 = DIRECTION('',(-0.,-1.,-0.));
#556 = CYLINDRICAL_SURFACE('',#557,0.925);
#557 = AXIS2_PLACEMENT_3D('',#558,#559,#560);
#558 = CARTESIAN_POINT('',(1.75,0.925,0.));
#559 = DIRECTION('',(-1.,-0.,-0.));
#560 = DIRECTION('',(0.,-1.,0.));
#561 = ADVANCED_FACE('',(#562),#582,.T.);
#562 = FACE_BOUND('',#563,.T.);
#563 = EDGE_LOOP('',(#564,#573,#574,#575));
#564 = ORIENTED_EDGE('',*,*,#565,.F.);
#565 = EDGE_CURVE('',#541,#566,#568,.T.);
#566 = VERTEX_POINT('',#567);
#567 = CARTESIAN_POINT('',(1.,5.E-02,0.));
#568 = CIRCLE('',#569,5.E-02);
#569 = AXIS2_PLACEMENT_3D('',#570,#571,#572);
#570 = CARTESIAN_POINT('',(1.05,5.E-02,0.));
#571 = DIRECTION('',(0.,0.,-1.));
#572 = DIRECTION('',(0.,-1.,-0.));
#573 = ORIENTED_EDGE('',*,*,#550,.T.);
#574 = ORIENTED_EDGE('',*,*,#565,.T.);
#575 = ORIENTED_EDGE('',*,*,#576,.F.);
#576 = EDGE_CURVE('',#566,#566,#577,.T.);
#577 = CIRCLE('',#578,0.875);
#578 = AXIS2_PLACEMENT_3D('',#579,#580,#581);
#579 = CARTESIAN_POINT('',(1.,0.925,0.));
#580 = DIRECTION('',(-1.,0.,0.));
#581 = DIRECTION('',(-0.,-1.,-0.));
#582 = TOROIDAL_SURFACE('',#583,0.875,5.E-02);
#583 = AXIS2_PLACEMENT_3D('',#584,#585,#586);
#584 = CARTESIAN_POINT('',(1.05,0.925,0.));
#585 = DIRECTION('',(-1.,-0.,-0.));
#586 = DIRECTION('',(0.,-1.,0.));
#587 = ADVANCED_FACE('',(#588),#591,.F.);
#588 = FACE_BOUND('',#589,.T.);
#589 = EDGE_LOOP('',(#590));
#590 = ORIENTED_EDGE('',*,*,#576,.T.);
#591 = PLANE('',#592);
#592 = AXIS2_PLACEMENT_3D('',#593,#594,#595);
#593 = CARTESIAN_POINT('',(1.,0.925,0.));
#594 = DIRECTION('',(1.,0.,0.));
#595 = DIRECTION('',(0.,1.,0.));
#596 = ( GEOMETRIC_REPRESENTATION_CONTEXT(3) 
GLOBAL_UNCERTAINTY_ASSIGNED_CONTEXT((#600)) GLOBAL_UNIT_ASSIGNED_CONTEXT
((#597,#598,#599)) REPRESENTATION_CONTEXT('Context #1',
  '3D Context with UNIT and UNCERTAINTY') );
#597 = ( LENGTH_UNIT() NAMED_UNIT(*) SI_UNIT(.MILLI.,.METRE.) );
#598 = ( NAMED_UNIT(*) PLANE_ANGLE_UNIT() SI_UNIT($,.RADIAN.) );
#599 = ( NAMED_UNIT(*) SI_UNIT($,.STERADIAN.) SOLID_ANGLE_UNIT() );
#600 = UNCERTAINTY_MEASURE_WITH_UNIT(LENGTH_MEASURE(1.E-07),#597,
  'distance_accuracy_value','confusion accuracy');
#601 = CONTEXT_DEPENDENT_SHAPE_REPRESENTATION(#602,#604);
#602 = ( REPRESENTATION_RELATIONSHIP('','',#490,#10) 
REPRESENTATION_RELATIONSHIP_WITH_TRANSFORMATION(#603) 
SHAPE_REPRESENTATION_RELATIONSHIP() );
#603 = ITEM_DEFINED_TRANSFORMATION('','',#11,#31);
#604 = PRODUCT_DEFINITION_SHAPE('Placement','Placement of an item',#605
  );
#605 = NEXT_ASSEMBLY_USAGE_OCCURRENCE('10','Body (Mirror #1)','',#5,#485
  ,$);
#606 = PRODUCT_RELATED_PRODUCT_CATEGORY('part',$,(#487));
#607 = MECHANICAL_DESIGN_GEOMETRIC_PRESENTATION_REPRESENTATION('',(#608)
  ,#153);
#608 = STYLED_ITEM('color',(#609),#49);
#609 = PRESENTATION_STYLE_ASSIGNMENT((#610,#616));
#610 = SURFACE_STYLE_USAGE(.BOTH.,#611);
#611 = SURFACE_SIDE_STYLE('',(#612));
#612 = SURFACE_STYLE_FILL_AREA(#613);
#613 = FILL_AREA_STYLE('',(#614));
#614 = FILL_AREA_STYLE_COLOUR('',#615);
#615 = COLOUR_RGB('',0.792156867455,0.823529417451,0.937254901616);
#616 = CURVE_STYLE('',#617,POSITIVE_LENGTH_MEASURE(0.1),#618);
#617 = DRAUGHTING_PRE_DEFINED_CURVE_FONT('continuous');
#618 = COLOUR_RGB('',9.803921802644E-02,9.803921802644E-02,
  9.803921802644E-02);
#619 = MECHANICAL_DESIGN_GEOMETRIC_PRESENTATION_REPRESENTATION('',(#620)
  ,#472);
#620 = STYLED_ITEM('color',(#621),#367);
#621 = PRESENTATION_STYLE_ASSIGNMENT((#622,#628));
#622 = SURFACE_STYLE_USAGE(.BOTH.,#623);
#623 = SURFACE_SIDE_STYLE('',(#624));
#624 = SURFACE_STYLE_FILL_AREA(#625);
#625 = FILL_AREA_STYLE('',(#626));
#626 = FILL_AREA_STYLE_COLOUR('',#627);
#627 = COLOUR_RGB('',0.909803941505,0.862745115625,0.792156867455);
#628 = CURVE_STYLE('',#629,POSITIVE_LENGTH_MEASURE(0.1),#618);
#629 = DRAUGHTING_PRE_DEFINED_CURVE_FONT('continuous');
#630 = MECHANICAL_DESIGN_GEOMETRIC_PRESENTATION_REPRESENTATION('',(#631)
  ,#276);
#631 = STYLED_ITEM('color',(#632),#172);
#632 = PRESENTATION_STYLE_ASSIGNMENT((#633,#638));
#633 = SURFACE_STYLE_USAGE(.BOTH.,#634);
#634 = SURFACE_SIDE_STYLE('',(#635));
#635 = SURFACE_STYLE_FILL_AREA(#636);
#636 = FILL_AREA_STYLE('',(#637));
#637 = FILL_AREA_STYLE_COLOUR('',#615);
#638 = CURVE_STYLE('',#639,POSITIVE_LENGTH_MEASURE(0.1),#618);
#639 = DRAUGHTING_PRE_DEFINED_CURVE_FONT('continuous');
#640 = MECHANICAL_DESIGN_GEOMETRIC_PRESENTATION_REPRESENTATION('',(#641)
  ,#348);
#641 = STYLED_ITEM('color',(#642),#295);
#642 = PRESENTATION_STYLE_ASSIGNMENT((#643,#648));
#643 = SURFACE_STYLE_USAGE(.BOTH.,#644);
#644 = SURFACE_SIDE_STYLE('',(#645));
#645 = SURFACE_STYLE_FILL_AREA(#646);
#646 = FILL_AREA_STYLE('',(#647));
#647 = FILL_AREA_STYLE_COLOUR('',#627);
#648 = CURVE_STYLE('',#649,POSITIVE_LENGTH_MEASURE(0.1),#618);
#649 = DRAUGHTING_PRE_DEFINED_CURVE_FONT('continuous');
#650 = MECHANICAL_DESIGN_GEOMETRIC_PRESENTATION_REPRESENTATION('',(#651)
  ,#596);
#651 = STYLED_ITEM('color',(#652),#491);
#652 = PRESENTATION_STYLE_ASSIGNMENT((#653,#658));
#653 = SURFACE_STYLE_USAGE(.BOTH.,#654);
#654 = SURFACE_SIDE_STYLE('',(#655));
#655 = SURFACE_STYLE_FILL_AREA(#656);
#656 = FILL_AREA_STYLE('',(#657));
#657 = FILL_AREA_STYLE_COLOUR('',#627);
#658 = CURVE_STYLE('',#659,POSITIVE_LENGTH_MEASURE(0.1),#618);
#659 = DRAUGHTING_PRE_DEFINED_CURVE_FONT('continuous');
ENDSEC;
END-ISO-10303-21;
