ISO-10303-21;
HEADER;
FILE_DESCRIPTION (( 'STEP AP214' ),
    '1' );
FILE_NAME ('1N914B R0.STEP',
    '2022-01-27T19:19:34',
    ( '' ),
    ( '' ),
    'SwSTEP 2.0',
    'SolidWorks 2017',
    '' );
FILE_SCHEMA (( 'AUTOMOTIVE_DESIGN' ));
ENDSEC;

DATA;
#1 = SURFACE_STYLE_USAGE ( .BOTH. , #854 ) ;
#2 = CARTESIAN_POINT ( 'NONE',  ( -3.939999999999999100, 0.4399999999999992300, 1.396097351027982500E-016 ) ) ;
#3 = CIRCLE ( 'NONE', #230, 0.2349999999999988800 ) ;
#4 = AXIS2_PLACEMENT_3D ( 'NONE', #272, #62, #782 ) ;
#5 = PRODUCT_CONTEXT ( 'NONE', #786, 'mechanical' ) ;
#6 = FACE_OUTER_BOUND ( 'NONE', #723, .T. ) ;
#7 = DIRECTION ( 'NONE',  ( 0.0000000000000000000, 0.0000000000000000000, 1.000000000000000000 ) ) ;
#8 = EDGE_CURVE ( 'NONE', #871, #362, #314, .T. ) ;
#9 = DIRECTION ( 'NONE',  ( -1.000000000000000000, -1.226875975435321500E-016, -0.0000000000000000000 ) ) ;
#10 = ORIENTED_EDGE ( 'NONE', *, *, #209, .T. ) ;
#11 = VECTOR ( 'NONE', #649, 1000.000000000000000 ) ;
#12 = VECTOR ( 'NONE', #346, 1000.000000000000000 ) ;
#13 = VERTEX_POINT ( 'NONE', #237 ) ;
#14 = ORIENTED_EDGE ( 'NONE', *, *, #892, .T. ) ;
#15 = DIRECTION ( 'NONE',  ( 0.0000000000000000000, 0.0000000000000000000, 1.000000000000000000 ) ) ;
#16 = AXIS2_PLACEMENT_3D ( 'NONE', #424, #144, #200 ) ;
#17 = EDGE_CURVE ( 'NONE', #292, #887, #823, .T. ) ;
#18 =( GEOMETRIC_REPRESENTATION_CONTEXT ( 3 ) GLOBAL_UNCERTAINTY_ASSIGNED_CONTEXT ( ( #760 ) ) GLOBAL_UNIT_ASSIGNED_CONTEXT ( ( #204, #783, #497 ) ) REPRESENTATION_CONTEXT ( 'NONE', 'WORKASPACE' ) );
#19 = DIRECTION ( 'NONE',  ( 1.902109074535977000E-016, -1.000000000000000000, 0.0000000000000000000 ) ) ;
#20 = DIRECTION ( 'NONE',  ( 3.370921011759177100E-016, 1.000000000000000000, -0.0000000000000000000 ) ) ;
#21 = ORIENTED_EDGE ( 'NONE', *, *, #122, .T. ) ;
#22 = CIRCLE ( 'NONE', #359, 0.2349999999999991000 ) ;
#23 = ORIENTED_EDGE ( 'NONE', *, *, #17, .T. ) ;
#24 = ORIENTED_EDGE ( 'NONE', *, *, #240, .F. ) ;
#25 = CARTESIAN_POINT ( 'NONE',  ( -4.404999999999996700, -19.61999999999999700, 1.396097351027982500E-016 ) ) ;
#26 = EDGE_LOOP ( 'NONE', ( #21, #541 ) ) ;
#27 = EDGE_CURVE ( 'NONE', #362, #737, #226, .T. ) ;
#28 =( NAMED_UNIT ( * ) SI_UNIT ( $, .STERADIAN. ) SOLID_ANGLE_UNIT ( ) );
#29 = DIRECTION ( 'NONE',  ( -1.209002422555778400E-016, -1.000000000000000000, 0.0000000000000000000 ) ) ;
#30 = CARTESIAN_POINT ( 'NONE',  ( 3.939999999999999100, 1.374999999999999100, 1.396097351027982500E-016 ) ) ;
#31 = DIRECTION ( 'NONE',  ( -1.000000000000000000, -1.209002422555778400E-016, 0.0000000000000000000 ) ) ;
#32 = VECTOR ( 'NONE', #826, 1000.000000000000000 ) ;
#33 = LINE ( 'NONE', #270, #12 ) ;
#34 = ADVANCED_FACE ( 'NONE', ( #364 ), #806, .T. ) ;
#35 = DIRECTION ( 'NONE',  ( -1.000000000000000000, -1.226875975435321500E-016, 0.0000000000000000000 ) ) ;
#36 = AXIS2_PLACEMENT_3D ( 'NONE', #219, #671, #817 ) ;
#37 = EDGE_CURVE ( 'NONE', #696, #904, #920, .T. ) ;
#38 = CARTESIAN_POINT ( 'NONE',  ( -1.995000000000000300, 4.770489558936219500E-015, 0.0000000000000000000 ) ) ;
#39 = ORIENTED_EDGE ( 'NONE', *, *, #294, .T. ) ;
#40 = UNCERTAINTY_MEASURE_WITH_UNIT (LENGTH_MEASURE( 1.000000000000000100E-005 ), #280, 'distance_accuracy_value', 'NONE');
#41 = DIRECTION ( 'NONE',  ( 1.902109074535977000E-016, -1.000000000000000000, 0.0000000000000000000 ) ) ;
#42 = ORIENTED_EDGE ( 'NONE', *, *, #606, .T. ) ;
#43 = CIRCLE ( 'NONE', #49, 0.2349999999999988800 ) ;
#44 = ADVANCED_FACE ( 'NONE', ( #759 ), #768, .T. ) ;
#45 = DIRECTION ( 'NONE',  ( 0.0000000000000000000, -1.000000000000000000, 0.0000000000000000000 ) ) ;
#46 = LINE ( 'NONE', #459, #186 ) ;
#47 = VECTOR ( 'NONE', #701, 1000.000000000000000 ) ;
#48 =( LENGTH_UNIT ( ) NAMED_UNIT ( * ) SI_UNIT ( .MILLI., .METRE. ) );
#49 = AXIS2_PLACEMENT_3D ( 'NONE', #51, #557, #641 ) ;
#50 = PRODUCT_DEFINITION_SHAPE ( 'NONE', 'NONE',  #269 ) ;
#51 = CARTESIAN_POINT ( 'NONE',  ( 3.939999999999999100, 1.140000000000000100, 1.396097351027982500E-016 ) ) ;
#52 = ORIENTED_EDGE ( 'NONE', *, *, #892, .F. ) ;
#53 = PLANE ( 'NONE',  #919 ) ;
#54 = EDGE_CURVE ( 'NONE', #332, #292, #890, .T. ) ;
#55 = CARTESIAN_POINT ( 'NONE',  ( 3.939999999999999100, 0.4399999999999992300, 1.396097351027982500E-016 ) ) ;
#56 = FACE_OUTER_BOUND ( 'NONE', #107, .T. ) ;
#57 = FACE_OUTER_BOUND ( 'NONE', #76, .T. ) ;
#58 = VERTEX_POINT ( 'NONE', #895 ) ;
#59 = VERTEX_POINT ( 'NONE', #409 ) ;
#60 = SURFACE_STYLE_USAGE ( .BOTH. , #286 ) ;
#61 = ORIENTED_EDGE ( 'NONE', *, *, #874, .T. ) ;
#62 = DIRECTION ( 'NONE',  ( -1.000000000000000000, -1.226875975435321700E-016, -0.0000000000000000000 ) ) ;
#63 = EDGE_LOOP ( 'NONE', ( #699, #876 ) ) ;
#64 = APPLICATION_CONTEXT ( 'automotive_design' ) ;
#65 = CARTESIAN_POINT ( 'NONE',  ( -1.794999999999998200, 2.279999999999999800, 1.396097351027979600E-016 ) ) ;
#66 = AXIS2_PLACEMENT_3D ( 'NONE', #354, #284, #495 ) ;
#67 = SURFACE_STYLE_USAGE ( .BOTH. , #201 ) ;
#68 = CIRCLE ( 'NONE', #434, 0.2349999999999988800 ) ;
#69 = EDGE_CURVE ( 'NONE', #607, #589, #898, .T. ) ;
#70 = CIRCLE ( 'NONE', #857, 0.8399999999999975300 ) ;
#71 = DIRECTION ( 'NONE',  ( -1.000000000000000000, -1.226875975435321700E-016, -0.0000000000000000000 ) ) ;
#72 = EDGE_CURVE ( 'NONE', #435, #492, #291, .T. ) ;
#73 = ORIENTED_EDGE ( 'NONE', *, *, #218, .T. ) ;
#74 = EDGE_LOOP ( 'NONE', ( #563, #307 ) ) ;
#75 = LINE ( 'NONE', #644, #302 ) ;
#76 = EDGE_LOOP ( 'NONE', ( #220, #352, #395, #572, #331 ) ) ;
#77 = CIRCLE ( 'NONE', #539, 1.139999999999997500 ) ;
#78 = ORIENTED_EDGE ( 'NONE', *, *, #242, .F. ) ;
#79 = CARTESIAN_POINT ( 'NONE',  ( -1.295000000000001000, 1.980000000000000000, 1.028703311283773700E-016 ) ) ;
#80 = DIRECTION ( 'NONE',  ( 3.370921011759177100E-016, -1.000000000000000000, 0.0000000000000000000 ) ) ;
#81 = AXIS2_PLACEMENT_3D ( 'NONE', #762, #238, #319 ) ;
#82 = EDGE_CURVE ( 'NONE', #887, #467, #569, .T. ) ;
#83 = AXIS2_PLACEMENT_3D ( 'NONE', #267, #342, #137 ) ;
#84 = ORIENTED_EDGE ( 'NONE', *, *, #693, .T. ) ;
#85 = CARTESIAN_POINT ( 'NONE',  ( -1.995000000000000300, 1.140000000000000100, 1.396097351027982500E-016 ) ) ;
#86 = ORIENTED_EDGE ( 'NONE', *, *, #242, .T. ) ;
#87 = CARTESIAN_POINT ( 'NONE',  ( -3.939999999999999100, 1.140000000000000100, 1.396097351027982500E-016 ) ) ;
#88 = CIRCLE ( 'NONE', #743, 0.4650000000000018600 ) ;
#89 = EDGE_LOOP ( 'NONE', ( #299, #73, #661, #653 ) ) ;
#90 = CIRCLE ( 'NONE', #432, 0.2349999999999988800 ) ;
#91 = CARTESIAN_POINT ( 'NONE',  ( 4.639999999999999700, 0.4399999999999990000, 1.396097351027982500E-016 ) ) ;
#92 = ORIENTED_EDGE ( 'NONE', *, *, #803, .T. ) ;
#93 = CARTESIAN_POINT ( 'NONE',  ( -3.939999999999999100, 1.140000000000000100, 0.2349999999999990200 ) ) ;
#94 = DIRECTION ( 'NONE',  ( 0.0000000000000000000, -1.000000000000000000, 0.0000000000000000000 ) ) ;
#95 = DIRECTION ( 'NONE',  ( 0.0000000000000000000, -1.000000000000000000, 0.0000000000000000000 ) ) ;
#96 = ORIENTED_EDGE ( 'NONE', *, *, #487, .T. ) ;
#97 = AXIS2_PLACEMENT_3D ( 'NONE', #192, #496, #698 ) ;
#98 = CARTESIAN_POINT ( 'NONE',  ( -1.794999999999997900, 0.3000000000000048200, 0.0000000000000000000 ) ) ;
#99 = UNCERTAINTY_MEASURE_WITH_UNIT (LENGTH_MEASURE( 1.000000000000000100E-005 ), #366, 'distance_accuracy_value', 'NONE');
#100 = ORIENTED_EDGE ( 'NONE', *, *, #138, .T. ) ;
#101 = ORIENTED_EDGE ( 'NONE', *, *, #707, .T. ) ;
#102 = FACE_OUTER_BOUND ( 'NONE', #134, .T. ) ;
#103 = ADVANCED_FACE ( 'NONE', ( #6 ), #166, .F. ) ;
#104 = LINE ( 'NONE', #578, #47 ) ;
#105 = EDGE_CURVE ( 'NONE', #492, #435, #604, .T. ) ;
#106 = CARTESIAN_POINT ( 'NONE',  ( -1.295000000000001300, 2.279999999999999800, 1.396097351027979600E-016 ) ) ;
#107 = EDGE_LOOP ( 'NONE', ( #566, #14, #633, #776 ) ) ;
#108 = ADVANCED_FACE ( 'NONE', ( #57 ), #910, .T. ) ;
#109 = ORIENTED_EDGE ( 'NONE', *, *, #82, .T. ) ;
#110 = CARTESIAN_POINT ( 'NONE',  ( -1.794999999999997700, 4.770489558936219500E-015, 0.0000000000000000000 ) ) ;
#111 = ORIENTED_EDGE ( 'NONE', *, *, #37, .F. ) ;
#112 = CARTESIAN_POINT ( 'NONE',  ( -27.39500000000000000, 1.979999999999996900, 1.028703311283773700E-016 ) ) ;
#113 = ADVANCED_FACE ( 'NONE', ( #628 ), #734, .T. ) ;
#114 = FACE_BOUND ( 'NONE', #441, .T. ) ;
#115 = SURFACE_STYLE_FILL_AREA ( #525 ) ;
#116 = DIRECTION ( 'NONE',  ( 1.226875975435321500E-016, -1.000000000000000000, 0.0000000000000000000 ) ) ;
#117 = AXIS2_PLACEMENT_3D ( 'NONE', #474, #386, #465 ) ;
#118 = EDGE_CURVE ( 'NONE', #513, #735, #129, .T. ) ;
#119 = DIRECTION ( 'NONE',  ( -1.000000000000000000, -1.226875975435321700E-016, -0.0000000000000000000 ) ) ;
#120 = DIRECTION ( 'NONE',  ( -1.000000000000000000, -1.226875975435321700E-016, -0.0000000000000000000 ) ) ;
#121 = DIRECTION ( 'NONE',  ( -3.398578238520849200E-017, -1.000000000000000000, 0.0000000000000000000 ) ) ;
#122 = EDGE_CURVE ( 'NONE', #737, #362, #77, .T. ) ;
#123 = ORIENTED_EDGE ( 'NONE', *, *, #259, .F. ) ;
#124 = ORIENTED_EDGE ( 'NONE', *, *, #17, .F. ) ;
#125 = SURFACE_SIDE_STYLE ('',( #402 ) ) ;
#126 = ORIENTED_EDGE ( 'NONE', *, *, #802, .F. ) ;
#127 = CIRCLE ( 'NONE', #373, 0.9350000000000000500 ) ;
#128 = ORIENTED_EDGE ( 'NONE', *, *, #343, .F. ) ;
#129 = CIRCLE ( 'NONE', #443, 1.139999999999997500 ) ;
#130 = DIRECTION ( 'NONE',  ( -1.000000000000000000, 1.209002422555778400E-016, -0.0000000000000000000 ) ) ;
#131 = CARTESIAN_POINT ( 'NONE',  ( -1.295000000000001000, 1.140000000000002600, 0.0000000000000000000 ) ) ;
#132 = CARTESIAN_POINT ( 'NONE',  ( 1.995000000000000300, 1.140000000000000100, 1.396097351027982500E-016 ) ) ;
#133 = DIRECTION ( 'NONE',  ( -1.000000000000000000, -1.226875975435321700E-016, -0.0000000000000000000 ) ) ;
#134 = EDGE_LOOP ( 'NONE', ( #381, #61 ) ) ;
#135 = DIRECTION ( 'NONE',  ( -1.000000000000000000, -1.226875975435321700E-016, -0.0000000000000000000 ) ) ;
#136 = AXIS2_PLACEMENT_3D ( 'NONE', #844, #770, #697 ) ;
#137 = DIRECTION ( 'NONE',  ( 1.000000000000000000, 2.306813132947890400E-016, 0.0000000000000000000 ) ) ;
#138 = EDGE_CURVE ( 'NONE', #555, #804, #512, .T. ) ;
#139 = AXIS2_PLACEMENT_3D ( 'NONE', #433, #500, #586 ) ;
#140 = ORIENTED_EDGE ( 'NONE', *, *, #845, .F. ) ;
#141 = TOROIDAL_SURFACE ( 'NONE', #827, 0.7000000000000009500, 0.2349999999999988800 ) ;
#142 = CARTESIAN_POINT ( 'NONE',  ( 0.0000000000000000000, 0.0000000000000000000, 0.0000000000000000000 ) ) ;
#143 = DIRECTION ( 'NONE',  ( 0.0000000000000000000, -1.000000000000000000, 0.0000000000000000000 ) ) ;
#144 = DIRECTION ( 'NONE',  ( 0.0000000000000000000, 0.0000000000000000000, 1.000000000000000000 ) ) ;
#145 = PRESENTATION_LAYER_ASSIGNMENT (  '', '', ( #869 ) ) ;
#146 = FACE_OUTER_BOUND ( 'NONE', #344, .T. ) ;
#147 = VERTEX_POINT ( 'NONE', #98 ) ;
#148 = VECTOR ( 'NONE', #341, 1000.000000000000000 ) ;
#149 = EDGE_CURVE ( 'NONE', #147, #556, #584, .T. ) ;
#150 = ORIENTED_EDGE ( 'NONE', *, *, #157, .F. ) ;
#151 = FACE_OUTER_BOUND ( 'NONE', #227, .T. ) ;
#152 = DIRECTION ( 'NONE',  ( 0.0000000000000000000, -1.000000000000000000, 0.0000000000000000000 ) ) ;
#153 = VECTOR ( 'NONE', #820, 1000.000000000000000 ) ;
#154 = CARTESIAN_POINT ( 'NONE',  ( -1.794999999999997900, 1.980000000000000000, 1.028703311283773600E-016 ) ) ;
#155 = CARTESIAN_POINT ( 'NONE',  ( 4.639999999999999700, 0.4399999999999990000, 1.396097351027982500E-016 ) ) ;
#156 = DIRECTION ( 'NONE',  ( -1.000000000000000000, -1.226875975435321700E-016, -0.0000000000000000000 ) ) ;
#157 = EDGE_CURVE ( 'NONE', #461, #581, #394, .T. ) ;
#158 = FILL_AREA_STYLE_COLOUR ( '', #638 ) ;
#159 = DIRECTION ( 'NONE',  ( 0.0000000000000000000, 0.0000000000000000000, 1.000000000000000000 ) ) ;
#160 = DIRECTION ( 'NONE',  ( 0.0000000000000000000, 0.0000000000000000000, 1.000000000000000000 ) ) ;
#161 = CIRCLE ( 'NONE', #136, 1.139999999999997500 ) ;
#162 = ORIENTED_EDGE ( 'NONE', *, *, #442, .F. ) ;
#163 = PRESENTATION_STYLE_ASSIGNMENT (( #309 ) ) ;
#164 = EDGE_CURVE ( 'NONE', #316, #212, #691, .T. ) ;
#165 = DIRECTION ( 'NONE',  ( -1.000000000000000000, -1.226875975435321700E-016, -0.0000000000000000000 ) ) ;
#166 = CYLINDRICAL_SURFACE ( 'NONE', #621, 0.8399999999999975300 ) ;
#167 = CARTESIAN_POINT ( 'NONE',  ( 4.639999999999996100, -19.61999999999999700, 1.396097351027982500E-016 ) ) ;
#168 = ADVANCED_FACE ( 'NONE', ( #429, #612 ), #308, .F. ) ;
#169 = DIRECTION ( 'NONE',  ( -1.000000000000000000, 1.209002422555778400E-016, -0.0000000000000000000 ) ) ;
#170 = ORIENTED_EDGE ( 'NONE', *, *, #765, .T. ) ;
#171 = DIRECTION ( 'NONE',  ( -1.000000000000000000, -1.226875975435321700E-016, -0.0000000000000000000 ) ) ;
#172 = CYLINDRICAL_SURFACE ( 'NONE', #335, 1.139999999999997500 ) ;
#173 = DIRECTION ( 'NONE',  ( -1.000000000000000000, -1.209002422555778400E-016, 0.0000000000000000000 ) ) ;
#174 = VERTEX_POINT ( 'NONE', #603 ) ;
#175 = AXIS2_PLACEMENT_3D ( 'NONE', #258, #133, #45 ) ;
#176 = AXIS2_PLACEMENT_3D ( 'NONE', #279, #789, #491 ) ;
#177 = CARTESIAN_POINT ( 'NONE',  ( -1.995000000000000300, 1.140000000000000100, 0.2349999999999990200 ) ) ;
#178 = MECHANICAL_DESIGN_GEOMETRIC_PRESENTATION_REPRESENTATION (  '', ( #231 ), #472 ) ;
#179 = DIRECTION ( 'NONE',  ( 1.000000000000000000, 1.226875975435321500E-016, 0.0000000000000000000 ) ) ;
#180 = ORIENTED_EDGE ( 'NONE', *, *, #752, .F. ) ;
#181 = ADVANCED_FACE ( 'NONE', ( #722 ), #336, .T. ) ;
#182 =( NAMED_UNIT ( * ) SI_UNIT ( $, .STERADIAN. ) SOLID_ANGLE_UNIT ( ) );
#183 = ORIENTED_EDGE ( 'NONE', *, *, #72, .F. ) ;
#184 = PRESENTATION_STYLE_ASSIGNMENT (( #769 ) ) ;
#185 = ADVANCED_FACE ( 'NONE', ( #530 ), #53, .F. ) ;
#186 = VECTOR ( 'NONE', #521, 1000.000000000000000 ) ;
#187 = ORIENTED_EDGE ( 'NONE', *, *, #803, .F. ) ;
#188 = VERTEX_POINT ( 'NONE', #711 ) ;
#189 = AXIS2_PLACEMENT_3D ( 'NONE', #668, #533, #503 ) ;
#190 = DIRECTION ( 'NONE',  ( 0.0000000000000000000, -1.000000000000000000, 0.0000000000000000000 ) ) ;
#191 = MECHANICAL_DESIGN_GEOMETRIC_PRESENTATION_REPRESENTATION (  '', ( #870 ), #912 ) ;
#192 = CARTESIAN_POINT ( 'NONE',  ( 4.639999999999996100, -19.61999999999999700, 1.396097351027982500E-016 ) ) ;
#193 = EDGE_CURVE ( 'NONE', #581, #507, #749, .T. ) ;
#194 = EDGE_CURVE ( 'NONE', #735, #513, #197, .T. ) ;
#195 = FACE_OUTER_BOUND ( 'NONE', #248, .T. ) ;
#196 = CARTESIAN_POINT ( 'NONE',  ( -1.295000000000000800, 5.204170427930421300E-015, 0.0000000000000000000 ) ) ;
#197 = CIRCLE ( 'NONE', #176, 1.139999999999997500 ) ;
#198 = DIRECTION ( 'NONE',  ( 1.902109074535977000E-016, -1.000000000000000000, 0.0000000000000000000 ) ) ;
#199 = FILL_AREA_STYLE_COLOUR ( '', #262 ) ;
#200 = DIRECTION ( 'NONE',  ( 1.000000000000000000, 0.0000000000000000000, 0.0000000000000000000 ) ) ;
#201 = SURFACE_SIDE_STYLE ('',( #609 ) ) ;
#202 = CARTESIAN_POINT ( 'NONE',  ( -1.995000000000000300, 1.140000000000000100, 1.396097351027982500E-016 ) ) ;
#203 = AXIS2_PLACEMENT_3D ( 'NONE', #247, #169, #753 ) ;
#204 =( LENGTH_UNIT ( ) NAMED_UNIT ( * ) SI_UNIT ( .MILLI., .METRE. ) );
#205 = EDGE_CURVE ( 'NONE', #13, #904, #104, .T. ) ;
#206 = LINE ( 'NONE', #358, #11 ) ;
#207 = FACE_OUTER_BOUND ( 'NONE', #337, .T. ) ;
#208 = DIRECTION ( 'NONE',  ( 1.000000000000000000, 0.0000000000000000000, 0.0000000000000000000 ) ) ;
#209 = EDGE_CURVE ( 'NONE', #794, #528, #406, .T. ) ;
#210 = CARTESIAN_POINT ( 'NONE',  ( -4.639999999999996100, -19.61999999999999700, 1.396097351027982500E-016 ) ) ;
#211 = ORIENTED_EDGE ( 'NONE', *, *, #766, .T. ) ;
#212 = VERTEX_POINT ( 'NONE', #350 ) ;
#213 = ORIENTED_EDGE ( 'NONE', *, *, #538, .F. ) ;
#214 = CIRCLE ( 'NONE', #357, 0.2349999999999988800 ) ;
#215 = CIRCLE ( 'NONE', #421, 1.139999999999997500 ) ;
#216 =( GEOMETRIC_REPRESENTATION_CONTEXT ( 3 ) GLOBAL_UNCERTAINTY_ASSIGNED_CONTEXT ( ( #504 ) ) GLOBAL_UNIT_ASSIGNED_CONTEXT ( ( #48, #632, #182 ) ) REPRESENTATION_CONTEXT ( 'NONE', 'WORKASPACE' ) );
#217 = DIRECTION ( 'NONE',  ( -1.000000000000000000, 0.0000000000000000000, 0.0000000000000000000 ) ) ;
#218 = EDGE_CURVE ( 'NONE', #290, #735, #33, .T. ) ;
#219 = CARTESIAN_POINT ( 'NONE',  ( 3.939999999999999100, 1.140000000000000100, 1.396097351027982500E-016 ) ) ;
#220 = ORIENTED_EDGE ( 'NONE', *, *, #193, .F. ) ;
#221 = CARTESIAN_POINT ( 'NONE',  ( -27.39500000000000000, 1.139999999999999200, 0.0000000000000000000 ) ) ;
#222 = CARTESIAN_POINT ( 'NONE',  ( -1.295000000000001000, 1.140000000000002600, 0.0000000000000000000 ) ) ;
#223 = DIRECTION ( 'NONE',  ( 0.0000000000000000000, -1.000000000000000000, 0.0000000000000000000 ) ) ;
#224 = CIRCLE ( 'NONE', #117, 0.2349999999999988800 ) ;
#225 = FACE_OUTER_BOUND ( 'NONE', #89, .T. ) ;
#226 = CIRCLE ( 'NONE', #411, 1.139999999999997500 ) ;
#227 = EDGE_LOOP ( 'NONE', ( #369, #86, #594, #245 ) ) ;
#228 = CARTESIAN_POINT ( 'NONE',  ( -4.639999999999999700, 0.4399999999999990000, 1.396097351027982500E-016 ) ) ;
#229 = CARTESIAN_POINT ( 'NONE',  ( -27.39500000000000000, 2.279999999999996300, 1.396097351027979600E-016 ) ) ;
#230 = AXIS2_PLACEMENT_3D ( 'NONE', #788, #502, #356 ) ;
#231 = STYLED_ITEM ( 'NONE', ( #425 ), #921 ) ;
#232 = ADVANCED_FACE ( 'NONE', ( #483 ), #637, .T. ) ;
#233 = DIRECTION ( 'NONE',  ( 3.370921011759177100E-016, 1.000000000000000000, -0.0000000000000000000 ) ) ;
#234 = DIRECTION ( 'NONE',  ( -1.000000000000000000, 0.0000000000000000000, 0.0000000000000000000 ) ) ;
#235 = DIRECTION ( 'NONE',  ( -1.000000000000000000, 0.0000000000000000000, 0.0000000000000000000 ) ) ;
#236 = CARTESIAN_POINT ( 'NONE',  ( 1.995000000000000300, 2.280000000000000200, 1.396097351027980300E-016 ) ) ;
#237 = CARTESIAN_POINT ( 'NONE',  ( 1.995000000000000300, 5.637851296924623100E-015, 0.0000000000000000000 ) ) ;
#238 = DIRECTION ( 'NONE',  ( -1.000000000000000000, -1.226875975435321700E-016, -0.0000000000000000000 ) ) ;
#239 = ORIENTED_EDGE ( 'NONE', *, *, #164, .T. ) ;
#240 = EDGE_CURVE ( 'NONE', #58, #290, #215, .T. ) ;
#241 = CIRCLE ( 'NONE', #401, 1.139999999999997500 ) ;
#242 = EDGE_CURVE ( 'NONE', #290, #58, #545, .T. ) ;
#243 = ADVANCED_FACE ( 'NONE', ( #207 ), #462, .T. ) ;
#244 = CARTESIAN_POINT ( 'NONE',  ( -1.794999999999997900, 1.140000000000002300, 0.0000000000000000000 ) ) ;
#245 = ORIENTED_EDGE ( 'NONE', *, *, #194, .F. ) ;
#246 = DIRECTION ( 'NONE',  ( 0.0000000000000000000, -1.000000000000000000, 0.0000000000000000000 ) ) ;
#247 = CARTESIAN_POINT ( 'NONE',  ( 3.939999999999999100, 1.140000000000000100, 1.396097351027982500E-016 ) ) ;
#248 = EDGE_LOOP ( 'NONE', ( #52, #787, #42, #546 ) ) ;
#249 = CLOSED_SHELL ( 'NONE', ( #837, #408, #476, #902, #168, #830, #893, #679, #761, #683 ) ) ;
#250 = CYLINDRICAL_SURFACE ( 'NONE', #83, 0.2349999999999991000 ) ;
#251 = CIRCLE ( 'NONE', #203, 0.2349999999999988800 ) ;
#252 = CARTESIAN_POINT ( 'NONE',  ( -1.794999999999999300, 2.279999999999999800, 0.0000000000000000000 ) ) ;
#253 = TOROIDAL_SURFACE ( 'NONE', #470, 0.7000000000000009500, 0.2349999999999988800 ) ;
#254 = AXIS2_PLACEMENT_3D ( 'NONE', #516, #590, #371 ) ;
#255 = EDGE_CURVE ( 'NONE', #292, #332, #351, .T. ) ;
#256 = ORIENTED_EDGE ( 'NONE', *, *, #693, .F. ) ;
#257 = CARTESIAN_POINT ( 'NONE',  ( -1.295000000000001000, 1.140000000000002600, 0.0000000000000000000 ) ) ;
#258 = CARTESIAN_POINT ( 'NONE',  ( -27.39500000000000000, 1.139999999999999200, 0.0000000000000000000 ) ) ;
#259 = EDGE_CURVE ( 'NONE', #581, #461, #448, .T. ) ;
#260 = DIRECTION ( 'NONE',  ( 0.0000000000000000000, 0.0000000000000000000, 1.000000000000000000 ) ) ;
#261 = DIRECTION ( 'NONE',  ( 0.0000000000000000000, -1.000000000000000000, 0.0000000000000000000 ) ) ;
#262 = COLOUR_RGB ( '',0.0000000000000000000, 0.0000000000000000000, 0.0000000000000000000 ) ;
#263 = EDGE_LOOP ( 'NONE', ( #124, #883, #659, #277 ) ) ;
#264 = LINE ( 'NONE', #229, #475 ) ;
#265 = ORIENTED_EDGE ( 'NONE', *, *, #901, .F. ) ;
#266 = VERTEX_POINT ( 'NONE', #236 ) ;
#267 = CARTESIAN_POINT ( 'NONE',  ( -4.639999999999999700, 0.4399999999999990000, 1.396097351027982500E-016 ) ) ;
#268 = CARTESIAN_POINT ( 'NONE',  ( -1.794999999999997900, 1.140000000000002300, 0.0000000000000000000 ) ) ;
#269 = PRODUCT_DEFINITION ( 'UNKNOWN', '', #577, #748 ) ;
#270 = CARTESIAN_POINT ( 'NONE',  ( -27.39500000000000000, 2.279999999999996700, 1.396097351027979800E-016 ) ) ;
#271 = DIRECTION ( 'NONE',  ( 0.0000000000000000000, -1.000000000000000000, 0.0000000000000000000 ) ) ;
#272 = CARTESIAN_POINT ( 'NONE',  ( -1.794999999999997900, 1.140000000000002300, 0.0000000000000000000 ) ) ;
#273 = ORIENTED_EDGE ( 'NONE', *, *, #8, .F. ) ;
#274 = AXIS2_PLACEMENT_3D ( 'NONE', #221, #165, #452 ) ;
#275 = AXIS2_PLACEMENT_3D ( 'NONE', #450, #20, #234 ) ;
#276 = PRODUCT_RELATED_PRODUCT_CATEGORY ( 'part', '', ( #865 ) ) ;
#277 = ORIENTED_EDGE ( 'NONE', *, *, #767, .T. ) ;
#278 = CIRCLE ( 'NONE', #81, 0.8399999999999975300 ) ;
#279 = CARTESIAN_POINT ( 'NONE',  ( -1.995000000000000300, 1.140000000000002300, 0.0000000000000000000 ) ) ;
#280 =( LENGTH_UNIT ( ) NAMED_UNIT ( * ) SI_UNIT ( .MILLI., .METRE. ) );
#281 = CARTESIAN_POINT ( 'NONE',  ( -1.295000000000001000, 1.140000000000002600, 0.0000000000000000000 ) ) ;
#282 = CARTESIAN_POINT ( 'NONE',  ( -1.295000000000000200, 1.980000000000000000, 0.0000000000000000000 ) ) ;
#283 = ORIENTED_EDGE ( 'NONE', *, *, #138, .F. ) ;
#284 = DIRECTION ( 'NONE',  ( -1.000000000000000000, -1.226875975435321500E-016, 0.0000000000000000000 ) ) ;
#285 = AXIS2_PLACEMENT_3D ( 'NONE', #326, #119, #550 ) ;
#286 = SURFACE_SIDE_STYLE ('',( #506 ) ) ;
#287 = ORIENTED_EDGE ( 'NONE', *, *, #620, .F. ) ;
#288 = ORIENTED_EDGE ( 'NONE', *, *, #193, .T. ) ;
#289 = CYLINDRICAL_SURFACE ( 'NONE', #705, 0.2349999999999991000 ) ;
#290 = VERTEX_POINT ( 'NONE', #927 ) ;
#291 = CIRCLE ( 'NONE', #520, 0.8399999999999974200 ) ;
#292 = VERTEX_POINT ( 'NONE', #79 ) ;
#293 = EDGE_CURVE ( 'NONE', #461, #59, #656, .T. ) ;
#294 = EDGE_CURVE ( 'NONE', #871, #843, #241, .T. ) ;
#295 = DIRECTION ( 'NONE',  ( -1.000000000000000000, 0.0000000000000000000, 0.0000000000000000000 ) ) ;
#296 = ORIENTED_EDGE ( 'NONE', *, *, #164, .F. ) ;
#297 = DIRECTION ( 'NONE',  ( -1.000000000000000000, 0.0000000000000000000, 0.0000000000000000000 ) ) ;
#298 = CARTESIAN_POINT ( 'NONE',  ( -1.794999999999997900, 1.140000000000002300, 0.0000000000000000000 ) ) ;
#299 = ORIENTED_EDGE ( 'NONE', *, *, #240, .T. ) ;
#300 = CARTESIAN_POINT ( 'NONE',  ( -3.939999999999999100, 0.4399999999999992300, 1.396097351027982500E-016 ) ) ;
#301 = VECTOR ( 'NONE', #547, 1000.000000000000000 ) ;
#302 = VECTOR ( 'NONE', #924, 1000.000000000000000 ) ;
#303 = PLANE ( 'NONE',  #872 ) ;
#304 = DIRECTION ( 'NONE',  ( -1.000000000000000000, -1.226875975435321700E-016, -0.0000000000000000000 ) ) ;
#305 = CARTESIAN_POINT ( 'NONE',  ( 4.404999999999996700, -19.61999999999999700, 1.396097351027982500E-016 ) ) ;
#306 = CARTESIAN_POINT ( 'NONE',  ( 4.874999999999999100, 0.4399999999999990000, 1.108305353228354000E-016 ) ) ;
#307 = ORIENTED_EDGE ( 'NONE', *, *, #862, .T. ) ;
#308 = PLANE ( 'NONE',  #642 ) ;
#309 = SURFACE_STYLE_USAGE ( .BOTH. , #454 ) ;
#310 = DIRECTION ( 'NONE',  ( -1.000000000000000000, -1.226875975435321700E-016, -0.0000000000000000000 ) ) ;
#311 = EDGE_CURVE ( 'NONE', #555, #903, #75, .T. ) ;
#312 = TOROIDAL_SURFACE ( 'NONE', #519, 0.7000000000000009500, 0.2349999999999988800 ) ;
#313 = DIRECTION ( 'NONE',  ( 1.000000000000000000, 0.0000000000000000000, 0.0000000000000000000 ) ) ;
#314 = LINE ( 'NONE', #536, #658 ) ;
#315 = EDGE_LOOP ( 'NONE', ( #672, #170, #907, #791, #438 ) ) ;
#316 = VERTEX_POINT ( 'NONE', #490 ) ;
#317 = CARTESIAN_POINT ( 'NONE',  ( -27.39500000000000000, 1.139999999999999200, 0.0000000000000000000 ) ) ;
#318 = ADVANCED_FACE ( 'NONE', ( #703, #554 ), #795, .F. ) ;
#319 = DIRECTION ( 'NONE',  ( 0.0000000000000000000, -1.000000000000000000, 0.0000000000000000000 ) ) ;
#320 = DIRECTION ( 'NONE',  ( 1.000000000000000000, 1.226875975435321500E-016, 0.0000000000000000000 ) ) ;
#321 = EDGE_LOOP ( 'NONE', ( #256, #925 ) ) ;
#322 = AXIS2_PLACEMENT_3D ( 'NONE', #842, #130, #339 ) ;
#323 = SURFACE_STYLE_FILL_AREA ( #858 ) ;
#324 = AXIS2_PLACEMENT_3D ( 'NONE', #55, #564, #295 ) ;
#325 = CIRCLE ( 'NONE', #725, 1.139999999999997500 ) ;
#326 = CARTESIAN_POINT ( 'NONE',  ( -1.295000000000001000, 1.140000000000002600, 0.0000000000000000000 ) ) ;
#327 = CARTESIAN_POINT ( 'NONE',  ( 1.995000000000000300, 1.140000000000003000, 0.0000000000000000000 ) ) ;
#328 = EDGE_LOOP ( 'NONE', ( #531, #100, #833, #412 ) ) ;
#329 = DIRECTION ( 'NONE',  ( 3.370921011759177100E-016, -1.000000000000000000, 0.0000000000000000000 ) ) ;
#330 = DIRECTION ( 'NONE',  ( 0.0000000000000000000, -1.000000000000000000, 0.0000000000000000000 ) ) ;
#331 = ORIENTED_EDGE ( 'NONE', *, *, #766, .F. ) ;
#332 = VERTEX_POINT ( 'NONE', #365 ) ;
#333 = CYLINDRICAL_SURFACE ( 'NONE', #274, 0.8399999999999975300 ) ;
#334 = ORIENTED_EDGE ( 'NONE', *, *, #845, .T. ) ;
#335 = AXIS2_PLACEMENT_3D ( 'NONE', #740, #529, #750 ) ;
#336 = CYLINDRICAL_SURFACE ( 'NONE', #558, 1.139999999999997500 ) ;
#337 = EDGE_LOOP ( 'NONE', ( #501, #10, #101, #334, #296 ) ) ;
#338 = ORIENTED_EDGE ( 'NONE', *, *, #917, .T. ) ;
#339 = DIRECTION ( 'NONE',  ( 0.0000000000000000000, -1.000000000000000000, 0.0000000000000000000 ) ) ;
#340 = DIRECTION ( 'NONE',  ( 0.0000000000000000000, 0.0000000000000000000, 1.000000000000000000 ) ) ;
#341 = DIRECTION ( 'NONE',  ( 1.000000000000000000, 0.0000000000000000000, 0.0000000000000000000 ) ) ;
#342 = DIRECTION ( 'NONE',  ( 2.161918589203399000E-016, -1.000000000000000000, 0.0000000000000000000 ) ) ;
#343 = EDGE_CURVE ( 'NONE', #188, #555, #127, .T. ) ;
#344 = EDGE_LOOP ( 'NONE', ( #123, #498, #464, #180 ) ) ;
#345 = AXIS2_PLACEMENT_3D ( 'NONE', #368, #742, #223 ) ;
#346 = DIRECTION ( 'NONE',  ( -1.000000000000000000, -1.226875975435321500E-016, -0.0000000000000000000 ) ) ;
#347 = CARTESIAN_POINT ( 'NONE',  ( -4.405000000000001100, 0.4399999999999990000, 1.396097351027982500E-016 ) ) ;
#348 = ORIENTED_EDGE ( 'NONE', *, *, #847, .T. ) ;
#349 = CARTESIAN_POINT ( 'NONE',  ( -3.939999999999999100, 0.4399999999999992300, 1.396097351027982500E-016 ) ) ;
#350 = CARTESIAN_POINT ( 'NONE',  ( 3.939999999999999100, 1.140000000000000100, 0.2349999999999990200 ) ) ;
#351 = CIRCLE ( 'NONE', #727, 0.8399999999999974200 ) ;
#352 = ORIENTED_EDGE ( 'NONE', *, *, #259, .T. ) ;
#353 =( LENGTH_UNIT ( ) NAMED_UNIT ( * ) SI_UNIT ( .MILLI., .METRE. ) );
#354 = CARTESIAN_POINT ( 'NONE',  ( -1.295000000000001000, 2.279999999999999800, 0.0000000000000000000 ) ) ;
#355 = EDGE_LOOP ( 'NONE', ( #287, #613 ) ) ;
#356 = DIRECTION ( 'NONE',  ( 0.0000000000000000000, -1.000000000000000000, 0.0000000000000000000 ) ) ;
#357 = AXIS2_PLACEMENT_3D ( 'NONE', #397, #540, #614 ) ;
#358 = CARTESIAN_POINT ( 'NONE',  ( -27.39500000000000000, 1.979999999999996900, 1.028703311283773700E-016 ) ) ;
#359 = AXIS2_PLACEMENT_3D ( 'NONE', #562, #329, #484 ) ;
#360 = CARTESIAN_POINT ( 'NONE',  ( -4.639999999999999700, 0.4399999999999990000, 1.396097351027982500E-016 ) ) ;
#361 = ORIENTED_EDGE ( 'NONE', *, *, #662, .F. ) ;
#362 = VERTEX_POINT ( 'NONE', #65 ) ;
#363 = VECTOR ( 'NONE', #376, 1000.000000000000000 ) ;
#364 = FACE_OUTER_BOUND ( 'NONE', #315, .T. ) ;
#365 = CARTESIAN_POINT ( 'NONE',  ( -1.295000000000001000, 0.3000000000000051500, 0.0000000000000000000 ) ) ;
#366 =( LENGTH_UNIT ( ) NAMED_UNIT ( * ) SI_UNIT ( .MILLI., .METRE. ) );
#367 = EDGE_CURVE ( 'NONE', #877, #579, #3, .T. ) ;
#368 = CARTESIAN_POINT ( 'NONE',  ( -1.295000000000001000, 1.140000000000002600, 0.0000000000000000000 ) ) ;
#369 = ORIENTED_EDGE ( 'NONE', *, *, #218, .F. ) ;
#370 = EDGE_LOOP ( 'NONE', ( #398, #884 ) ) ;
#371 = DIRECTION ( 'NONE',  ( 0.0000000000000000000, -1.000000000000000000, 0.0000000000000000000 ) ) ;
#372 = ORIENTED_EDGE ( 'NONE', *, *, #859, .F. ) ;
#373 = AXIS2_PLACEMENT_3D ( 'NONE', #2, #7, #798 ) ;
#374 = AXIS2_PLACEMENT_3D ( 'NONE', #317, #171, #246 ) ;
#375 =( GEOMETRIC_REPRESENTATION_CONTEXT ( 3 ) GLOBAL_UNCERTAINTY_ASSIGNED_CONTEXT ( ( #40 ) ) GLOBAL_UNIT_ASSIGNED_CONTEXT ( ( #280, #422, #651 ) ) REPRESENTATION_CONTEXT ( 'NONE', 'WORKASPACE' ) );
#376 = DIRECTION ( 'NONE',  ( -1.000000000000000000, -1.226875975435321500E-016, -0.0000000000000000000 ) ) ;
#377 = ORIENTED_EDGE ( 'NONE', *, *, #678, .T. ) ;
#378 = DIRECTION ( 'NONE',  ( 1.000000000000000000, 0.0000000000000000000, 0.0000000000000000000 ) ) ;
#379 = DIRECTION ( 'NONE',  ( -1.000000000000000000, 0.0000000000000000000, 0.0000000000000000000 ) ) ;
#380 = EDGE_LOOP ( 'NONE', ( #916, #835 ) ) ;
#381 = ORIENTED_EDGE ( 'NONE', *, *, #859, .T. ) ;
#382 = CARTESIAN_POINT ( 'NONE',  ( -1.995000000000000300, 1.140000000000000100, 0.2349999999999990200 ) ) ;
#383 = MECHANICAL_DESIGN_GEOMETRIC_PRESENTATION_REPRESENTATION (  '', ( #869 ), #216 ) ;
#384 = ADVANCED_FACE ( 'NONE', ( #404 ), #289, .T. ) ;
#385 = DIRECTION ( 'NONE',  ( -1.000000000000000000, 0.0000000000000000000, 0.0000000000000000000 ) ) ;
#386 = DIRECTION ( 'NONE',  ( -1.000000000000000000, 1.209002422555778400E-016, -0.0000000000000000000 ) ) ;
#387 = AXIS2_PLACEMENT_3D ( 'NONE', #131, #457, #451 ) ;
#388 = ORIENTED_EDGE ( 'NONE', *, *, #662, .T. ) ;
#389 = COLOUR_RGB ( '',0.7921568627450980000, 0.8196078431372548800, 0.9333333333333333500 ) ;
#390 = DIRECTION ( 'NONE',  ( 1.902109074535977000E-016, -1.000000000000000000, 0.0000000000000000000 ) ) ;
#391 = ORIENTED_EDGE ( 'NONE', *, *, #592, .F. ) ;
#392 = FACE_OUTER_BOUND ( 'NONE', #63, .T. ) ;
#393 = DIRECTION ( 'NONE',  ( -1.226875975435321500E-016, 1.000000000000000000, 0.0000000000000000000 ) ) ;
#394 = CIRCLE ( 'NONE', #708, 0.2349999999999991000 ) ;
#395 = ORIENTED_EDGE ( 'NONE', *, *, #293, .T. ) ;
#396 = ADVANCED_FACE ( 'NONE', ( #880 ), #141, .T. ) ;
#397 = CARTESIAN_POINT ( 'NONE',  ( -1.995000000000000300, 1.140000000000000100, 1.396097351027982500E-016 ) ) ;
#398 = ORIENTED_EDGE ( 'NONE', *, *, #118, .T. ) ;
#399 = CARTESIAN_POINT ( 'NONE',  ( -1.295000000000001000, 1.980000000000000000, 1.028703311283773700E-016 ) ) ;
#400 = PLANE ( 'NONE',  #818 ) ;
#401 = AXIS2_PLACEMENT_3D ( 'NONE', #281, #704, #922 ) ;
#402 = SURFACE_STYLE_FILL_AREA ( #479 ) ;
#403 = AXIS2_PLACEMENT_3D ( 'NONE', #142, #864, #430 ) ;
#404 = FACE_OUTER_BOUND ( 'NONE', #328, .T. ) ;
#405 = ADVANCED_BREP_SHAPE_REPRESENTATION ( '1N914B R0', ( #921, #669, #881, #839, #403 ), #18 ) ;
#406 = LINE ( 'NONE', #414, #148 ) ;
#407 = CARTESIAN_POINT ( 'NONE',  ( -27.39500000000000000, 1.139999999999999200, 0.0000000000000000000 ) ) ;
#408 = ADVANCED_FACE ( 'NONE', ( #225 ), #690, .T. ) ;
#409 = CARTESIAN_POINT ( 'NONE',  ( 3.939999999999999100, 0.9050000000000012500, 1.108305353228355900E-016 ) ) ;
#410 = FILL_AREA_STYLE_COLOUR ( '', #542 ) ;
#411 = AXIS2_PLACEMENT_3D ( 'NONE', #244, #825, #390 ) ;
#412 = ORIENTED_EDGE ( 'NONE', *, *, #862, .F. ) ;
#413 = CARTESIAN_POINT ( 'NONE',  ( -27.39500000000000000, 1.139999999999999200, 0.0000000000000000000 ) ) ;
#414 = CARTESIAN_POINT ( 'NONE',  ( 1.995000000000000300, 1.140000000000000100, -0.2349999999999987400 ) ) ;
#415 = CARTESIAN_POINT ( 'NONE',  ( 1.995000000000000300, 1.140000000000000100, 1.396097351027982500E-016 ) ) ;
#416 = EDGE_LOOP ( 'NONE', ( #273, #39, #832, #617 ) ) ;
#417 = EDGE_LOOP ( 'NONE', ( #377, #715, #480, #687 ) ) ;
#418 = DIRECTION ( 'NONE',  ( 0.0000000000000000000, -1.000000000000000000, 0.0000000000000000000 ) ) ;
#419 = DIRECTION ( 'NONE',  ( 0.0000000000000000000, 0.0000000000000000000, 1.000000000000000000 ) ) ;
#420 = DIRECTION ( 'NONE',  ( 1.000000000000000000, 0.0000000000000000000, 0.0000000000000000000 ) ) ;
#421 = AXIS2_PLACEMENT_3D ( 'NONE', #488, #135, #198 ) ;
#422 =( NAMED_UNIT ( * ) PLANE_ANGLE_UNIT ( ) SI_UNIT ( $, .RADIAN. ) );
#423 = AXIS2_PLACEMENT_3D ( 'NONE', #228, #524, #378 ) ;
#424 = CARTESIAN_POINT ( 'NONE',  ( 3.939999999999999100, 0.4399999999999992300, 1.108305353228355900E-016 ) ) ;
#425 = PRESENTATION_STYLE_ASSIGNMENT (( #60 ) ) ;
#426 = FACE_OUTER_BOUND ( 'NONE', #370, .T. ) ;
#427 = CIRCLE ( 'NONE', #36, 0.2349999999999988800 ) ;
#428 =( NAMED_UNIT ( * ) PLANE_ANGLE_UNIT ( ) SI_UNIT ( $, .RADIAN. ) );
#429 = FACE_OUTER_BOUND ( 'NONE', #853, .T. ) ;
#430 = DIRECTION ( 'NONE',  ( 1.000000000000000000, 0.0000000000000000000, 0.0000000000000000000 ) ) ;
#431 = ORIENTED_EDGE ( 'NONE', *, *, #471, .T. ) ;
#432 = AXIS2_PLACEMENT_3D ( 'NONE', #87, #31, #95 ) ;
#433 = CARTESIAN_POINT ( 'NONE',  ( -27.39500000000000000, 1.139999999999999200, 0.0000000000000000000 ) ) ;
#434 = AXIS2_PLACEMENT_3D ( 'NONE', #415, #565, #630 ) ;
#435 = VERTEX_POINT ( 'NONE', #399 ) ;
#436 = PRESENTATION_STYLE_ASSIGNMENT (( #67 ) ) ;
#437 = ORIENTED_EDGE ( 'NONE', *, *, #809, .F. ) ;
#438 = ORIENTED_EDGE ( 'NONE', *, *, #655, .F. ) ;
#439 = CYLINDRICAL_SURFACE ( 'NONE', #911, 0.2349999999999991000 ) ;
#440 = ORIENTED_EDGE ( 'NONE', *, *, #209, .F. ) ;
#441 = EDGE_LOOP ( 'NONE', ( #640, #680 ) ) ;
#442 = EDGE_CURVE ( 'NONE', #583, #903, #599, .T. ) ;
#443 = AXIS2_PLACEMENT_3D ( 'NONE', #515, #156, #152 ) ;
#444 = VERTEX_POINT ( 'NONE', #177 ) ;
#445 = DIRECTION ( 'NONE',  ( -1.000000000000000000, 0.0000000000000000000, 0.0000000000000000000 ) ) ;
#446 = FACE_OUTER_BOUND ( 'NONE', #814, .T. ) ;
#447 = CARTESIAN_POINT ( 'NONE',  ( -1.794999999999997900, 1.140000000000002300, 0.0000000000000000000 ) ) ;
#448 = CIRCLE ( 'NONE', #796, 0.2349999999999991000 ) ;
#449 = DIRECTION ( 'NONE',  ( -1.000000000000000000, 2.306813132947890400E-016, 0.0000000000000000000 ) ) ;
#450 = CARTESIAN_POINT ( 'NONE',  ( 4.639999999999996100, -19.61999999999999700, 1.396097351027982500E-016 ) ) ;
#451 = DIRECTION ( 'NONE',  ( 0.0000000000000000000, -1.000000000000000000, 0.0000000000000000000 ) ) ;
#452 = DIRECTION ( 'NONE',  ( 0.0000000000000000000, -1.000000000000000000, 0.0000000000000000000 ) ) ;
#453 = ORIENTED_EDGE ( 'NONE', *, *, #311, .T. ) ;
#454 = SURFACE_SIDE_STYLE ('',( #115 ) ) ;
#455 = AXIS2_PLACEMENT_3D ( 'NONE', #758, #689, #41 ) ;
#456 = DIRECTION ( 'NONE',  ( 1.000000000000000000, 3.370921011759177100E-016, 0.0000000000000000000 ) ) ;
#457 = DIRECTION ( 'NONE',  ( -1.000000000000000000, -1.226875975435321700E-016, -0.0000000000000000000 ) ) ;
#458 = ADVANCED_FACE ( 'NONE', ( #856 ), #836, .F. ) ;
#459 = CARTESIAN_POINT ( 'NONE',  ( -27.39500000000000000, 0.3000000000000017700, 0.0000000000000000000 ) ) ;
#460 = CYLINDRICAL_SURFACE ( 'NONE', #139, 0.8399999999999975300 ) ;
#461 = VERTEX_POINT ( 'NONE', #602 ) ;
#462 = CYLINDRICAL_SURFACE ( 'NONE', #764, 0.2349999999999988800 ) ;
#463 = ORIENTED_EDGE ( 'NONE', *, *, #575, .F. ) ;
#464 = ORIENTED_EDGE ( 'NONE', *, *, #69, .T. ) ;
#465 = DIRECTION ( 'NONE',  ( 0.0000000000000000000, -1.000000000000000000, 0.0000000000000000000 ) ) ;
#466 = ADVANCED_FACE ( 'NONE', ( #482 ), #813, .T. ) ;
#467 = VERTEX_POINT ( 'NONE', #744 ) ;
#468 = ADVANCED_FACE ( 'NONE', ( #102 ), #303, .F. ) ;
#469 = DIRECTION ( 'NONE',  ( 0.0000000000000000000, -1.000000000000000000, 0.0000000000000000000 ) ) ;
#470 = AXIS2_PLACEMENT_3D ( 'NONE', #618, #340, #235 ) ;
#471 = EDGE_CURVE ( 'NONE', #188, #174, #846, .T. ) ;
#472 =( GEOMETRIC_REPRESENTATION_CONTEXT ( 3 ) GLOBAL_UNCERTAINTY_ASSIGNED_CONTEXT ( ( #99 ) ) GLOBAL_UNIT_ASSIGNED_CONTEXT ( ( #366, #428, #582 ) ) REPRESENTATION_CONTEXT ( 'NONE', 'WORKASPACE' ) );
#473 = LINE ( 'NONE', #756, #719 ) ;
#474 = CARTESIAN_POINT ( 'NONE',  ( 3.939999999999999100, 1.140000000000000100, 1.396097351027982500E-016 ) ) ;
#475 = VECTOR ( 'NONE', #9, 1000.000000000000000 ) ;
#476 = ADVANCED_FACE ( 'NONE', ( #56 ), #333, .T. ) ;
#477 = CARTESIAN_POINT ( 'NONE',  ( 1.995000000000000300, 5.637851296924623100E-015, 0.0000000000000000000 ) ) ;
#478 = ADVANCED_FACE ( 'NONE', ( #627 ), #909, .T. ) ;
#479 = FILL_AREA_STYLE ('',( #851 ) ) ;
#480 = ORIENTED_EDGE ( 'NONE', *, *, #781, .F. ) ;
#481 = AXIS2_PLACEMENT_3D ( 'NONE', #210, #80, #724 ) ;
#482 = FACE_OUTER_BOUND ( 'NONE', #74, .T. ) ;
#483 = FACE_OUTER_BOUND ( 'NONE', #355, .T. ) ;
#484 = DIRECTION ( 'NONE',  ( 1.000000000000000000, 0.0000000000000000000, 0.0000000000000000000 ) ) ;
#485 = CARTESIAN_POINT ( 'NONE',  ( -1.295000000000001300, 2.279999999999999800, 1.396097351027979600E-016 ) ) ;
#486 = EDGE_CURVE ( 'NONE', #266, #696, #264, .T. ) ;
#487 = EDGE_CURVE ( 'NONE', #556, #147, #70, .T. ) ;
#488 = CARTESIAN_POINT ( 'NONE',  ( -1.794999999999997900, 1.140000000000002300, 0.0000000000000000000 ) ) ;
#489 = CARTESIAN_POINT ( 'NONE',  ( -4.874999999999994700, -19.61999999999999700, 1.683889348827609000E-016 ) ) ;
#490 = CARTESIAN_POINT ( 'NONE',  ( 1.995000000000000300, 1.140000000000000100, 0.2349999999999990200 ) ) ;
#491 = DIRECTION ( 'NONE',  ( 0.0000000000000000000, -1.000000000000000000, 0.0000000000000000000 ) ) ;
#492 = VERTEX_POINT ( 'NONE', #534 ) ;
#493 = CIRCLE ( 'NONE', #600, 0.2349999999999988800 ) ;
#494 = VECTOR ( 'NONE', #523, 1000.000000000000000 ) ;
#495 = DIRECTION ( 'NONE',  ( 1.226875975435321500E-016, -1.000000000000000000, 0.0000000000000000000 ) ) ;
#496 = DIRECTION ( 'NONE',  ( -3.370921011759177100E-016, -1.000000000000000000, 0.0000000000000000000 ) ) ;
#497 =( NAMED_UNIT ( * ) SI_UNIT ( $, .STERADIAN. ) SOLID_ANGLE_UNIT ( ) );
#498 = ORIENTED_EDGE ( 'NONE', *, *, #751, .T. ) ;
#499 = AXIS2_PLACEMENT_3D ( 'NONE', #728, #514, #652 ) ;
#500 = DIRECTION ( 'NONE',  ( -1.000000000000000000, -1.226875975435321700E-016, -0.0000000000000000000 ) ) ;
#501 = ORIENTED_EDGE ( 'NONE', *, *, #874, .F. ) ;
#502 = DIRECTION ( 'NONE',  ( -1.000000000000000000, -1.209002422555778400E-016, 0.0000000000000000000 ) ) ;
#503 = DIRECTION ( 'NONE',  ( -1.000000000000000000, 2.306813132947890400E-016, 0.0000000000000000000 ) ) ;
#504 = UNCERTAINTY_MEASURE_WITH_UNIT (LENGTH_MEASURE( 1.000000000000000100E-005 ), #48, 'distance_accuracy_value', 'NONE');
#505 = DIRECTION ( 'NONE',  ( -1.000000000000000000, 0.0000000000000000000, 0.0000000000000000000 ) ) ;
#506 = SURFACE_STYLE_FILL_AREA ( #571 ) ;
#507 = VERTEX_POINT ( 'NONE', #30 ) ;
#508 = DIRECTION ( 'NONE',  ( -1.000000000000000000, -1.226875975435321700E-016, -0.0000000000000000000 ) ) ;
#509 = ORIENTED_EDGE ( 'NONE', *, *, #255, .F. ) ;
#510 = LINE ( 'NONE', #897, #363 ) ;
#511 = AXIS2_PLACEMENT_3D ( 'NONE', #268, #559, #330 ) ;
#512 = CIRCLE ( 'NONE', #423, 0.2349999999999991000 ) ;
#513 = VERTEX_POINT ( 'NONE', #665 ) ;
#514 = DIRECTION ( 'NONE',  ( -1.000000000000000000, -1.226875975435321700E-016, -0.0000000000000000000 ) ) ;
#515 = CARTESIAN_POINT ( 'NONE',  ( -1.995000000000000300, 1.140000000000002300, 0.0000000000000000000 ) ) ;
#516 = CARTESIAN_POINT ( 'NONE',  ( -3.939999999999999100, 1.140000000000000100, 1.396097351027982500E-016 ) ) ;
#517 = FACE_OUTER_BOUND ( 'NONE', #518, .T. ) ;
#518 = EDGE_LOOP ( 'NONE', ( #784, #348, #778, #111 ) ) ;
#519 = AXIS2_PLACEMENT_3D ( 'NONE', #300, #15, #313 ) ;
#520 = AXIS2_PLACEMENT_3D ( 'NONE', #257, #631, #643 ) ;
#521 = DIRECTION ( 'NONE',  ( -1.000000000000000000, -1.226875975435321500E-016, -0.0000000000000000000 ) ) ;
#522 = DIRECTION ( 'NONE',  ( -3.398578238520849200E-017, 1.000000000000000000, -0.0000000000000000000 ) ) ;
#523 = DIRECTION ( 'NONE',  ( -1.000000000000000000, -1.226875975435321500E-016, -0.0000000000000000000 ) ) ;
#524 = DIRECTION ( 'NONE',  ( -3.398578238520849200E-017, -1.000000000000000000, 0.0000000000000000000 ) ) ;
#525 = FILL_AREA_STYLE ('',( #158 ) ) ;
#526 = CIRCLE ( 'NONE', #285, 1.139999999999997500 ) ;
#527 = ORIENTED_EDGE ( 'NONE', *, *, #149, .T. ) ;
#528 = VERTEX_POINT ( 'NONE', #561 ) ;
#529 = DIRECTION ( 'NONE',  ( -1.000000000000000000, -1.226875975435321700E-016, -0.0000000000000000000 ) ) ;
#530 = FACE_OUTER_BOUND ( 'NONE', #321, .T. ) ;
#531 = ORIENTED_EDGE ( 'NONE', *, *, #311, .F. ) ;
#532 = AXIS2_PLACEMENT_3D ( 'NONE', #552, #838, #271 ) ;
#533 = DIRECTION ( 'NONE',  ( -2.161918589203399000E-016, -1.000000000000000000, 0.0000000000000000000 ) ) ;
#534 = CARTESIAN_POINT ( 'NONE',  ( -1.295000000000001000, 0.3000000000000051500, 0.0000000000000000000 ) ) ;
#535 = PRESENTATION_LAYER_ASSIGNMENT (  '', '', ( #810 ) ) ;
#536 = CARTESIAN_POINT ( 'NONE',  ( -27.39500000000000000, 2.279999999999996300, 1.396097351027979600E-016 ) ) ;
#537 = ADVANCED_FACE ( 'NONE', ( #867 ), #253, .T. ) ;
#538 = EDGE_CURVE ( 'NONE', #843, #737, #510, .T. ) ;
#539 = AXIS2_PLACEMENT_3D ( 'NONE', #298, #304, #746 ) ;
#540 = DIRECTION ( 'NONE',  ( -1.000000000000000000, -1.209002422555778400E-016, 0.0000000000000000000 ) ) ;
#541 = ORIENTED_EDGE ( 'NONE', *, *, #27, .T. ) ;
#542 = COLOUR_RGB ( '',0.7921568627450980000, 0.8196078431372548800, 0.9333333333333333500 ) ;
#543 = ADVANCED_FACE ( 'NONE', ( #648 ), #682, .T. ) ;
#544 = DIRECTION ( 'NONE',  ( -1.000000000000000000, -1.226875975435321500E-016, -0.0000000000000000000 ) ) ;
#545 = CIRCLE ( 'NONE', #4, 1.139999999999997500 ) ;
#546 = ORIENTED_EDGE ( 'NONE', *, *, #487, .F. ) ;
#547 = DIRECTION ( 'NONE',  ( -2.161918589203399000E-016, -1.000000000000000000, 0.0000000000000000000 ) ) ;
#548 = DIRECTION ( 'NONE',  ( 0.0000000000000000000, -1.000000000000000000, 0.0000000000000000000 ) ) ;
#549 = ORIENTED_EDGE ( 'NONE', *, *, #54, .T. ) ;
#550 = DIRECTION ( 'NONE',  ( 1.902109074535977000E-016, -1.000000000000000000, 0.0000000000000000000 ) ) ;
#551 = ADVANCED_FACE ( 'NONE', ( #747 ), #312, .T. ) ;
#552 = CARTESIAN_POINT ( 'NONE',  ( -3.939999999999999100, 1.140000000000000100, 1.396097351027982500E-016 ) ) ;
#553 = EDGE_LOOP ( 'NONE', ( #388, #639, #657, #213 ) ) ;
#554 = FACE_BOUND ( 'NONE', #636, .T. ) ;
#555 = VERTEX_POINT ( 'NONE', #670 ) ;
#556 = VERTEX_POINT ( 'NONE', #154 ) ;
#557 = DIRECTION ( 'NONE',  ( -1.000000000000000000, 1.209002422555778400E-016, -0.0000000000000000000 ) ) ;
#558 = AXIS2_PLACEMENT_3D ( 'NONE', #908, #310, #261 ) ;
#559 = DIRECTION ( 'NONE',  ( -1.000000000000000000, -1.226875975435321700E-016, -0.0000000000000000000 ) ) ;
#560 = EDGE_LOOP ( 'NONE', ( #128, #431, #855, #92, #283 ) ) ;
#561 = CARTESIAN_POINT ( 'NONE',  ( 3.939999999999999100, 1.140000000000000100, -0.2349999999999987400 ) ) ;
#562 = CARTESIAN_POINT ( 'NONE',  ( -4.639999999999996100, -19.61999999999999700, 1.396097351027982500E-016 ) ) ;
#563 = ORIENTED_EDGE ( 'NONE', *, *, #442, .T. ) ;
#564 = DIRECTION ( 'NONE',  ( 0.0000000000000000000, 0.0000000000000000000, 1.000000000000000000 ) ) ;
#565 = DIRECTION ( 'NONE',  ( -1.000000000000000000, 1.209002422555778400E-016, -0.0000000000000000000 ) ) ;
#566 = ORIENTED_EDGE ( 'NONE', *, *, #105, .T. ) ;
#567 = COLOUR_RGB ( '',0.7921568627450980000, 0.8196078431372548800, 0.9333333333333333500 ) ;
#568 = DIRECTION ( 'NONE',  ( 0.0000000000000000000, 0.0000000000000000000, 1.000000000000000000 ) ) ;
#569 = CIRCLE ( 'NONE', #511, 0.8399999999999975300 ) ;
#570 = ORIENTED_EDGE ( 'NONE', *, *, #620, .T. ) ;
#571 = FILL_AREA_STYLE ('',( #199 ) ) ;
#572 = ORIENTED_EDGE ( 'NONE', *, *, #707, .F. ) ;
#573 = AXIS2_PLACEMENT_3D ( 'NONE', #866, #508, #700 ) ;
#574 =( NAMED_UNIT ( * ) SI_UNIT ( $, .STERADIAN. ) SOLID_ANGLE_UNIT ( ) );
#575 = EDGE_CURVE ( 'NONE', #212, #507, #427, .T. ) ;
#576 = ORIENTED_EDGE ( 'NONE', *, *, #105, .F. ) ;
#577 = PRODUCT_DEFINITION_FORMATION_WITH_SPECIFIED_SOURCE ( 'ANY', '', #865, .NOT_KNOWN. ) ;
#578 = CARTESIAN_POINT ( 'NONE',  ( -27.39500000000000000, 1.951563910473908000E-015, 0.0000000000000000000 ) ) ;
#579 = VERTEX_POINT ( 'NONE', #93 ) ;
#580 = FILL_AREA_STYLE_COLOUR ( '', #389 ) ;
#581 = VERTEX_POINT ( 'NONE', #306 ) ;
#582 =( NAMED_UNIT ( * ) SI_UNIT ( $, .STERADIAN. ) SOLID_ANGLE_UNIT ( ) );
#583 = VERTEX_POINT ( 'NONE', #25 ) ;
#584 = CIRCLE ( 'NONE', #695, 0.8399999999999975300 ) ;
#585 = DIRECTION ( 'NONE',  ( 0.0000000000000000000, -1.000000000000000000, 0.0000000000000000000 ) ) ;
#586 = DIRECTION ( 'NONE',  ( 0.0000000000000000000, -1.000000000000000000, 0.0000000000000000000 ) ) ;
#587 = ORIENTED_EDGE ( 'NONE', *, *, #752, .T. ) ;
#588 = AXIS2_PLACEMENT_3D ( 'NONE', #252, #320, #393 ) ;
#589 = VERTEX_POINT ( 'NONE', #305 ) ;
#590 = DIRECTION ( 'NONE',  ( -1.000000000000000000, -1.209002422555778400E-016, 0.0000000000000000000 ) ) ;
#591 = CARTESIAN_POINT ( 'NONE',  ( 4.639999999999999700, 0.4399999999999990000, 1.396097351027982500E-016 ) ) ;
#592 = EDGE_CURVE ( 'NONE', #444, #579, #720, .T. ) ;
#593 = AXIS2_PLACEMENT_3D ( 'NONE', #754, #385, #615 ) ;
#594 = ORIENTED_EDGE ( 'NONE', *, *, #663, .T. ) ;
#595 = ORIENTED_EDGE ( 'NONE', *, *, #293, .F. ) ;
#596 = DIRECTION ( 'NONE',  ( 1.000000000000000000, 0.0000000000000000000, 0.0000000000000000000 ) ) ;
#597 = DIRECTION ( 'NONE',  ( -1.000000000000000000, 0.0000000000000000000, 0.0000000000000000000 ) ) ;
#598 = CYLINDRICAL_SURFACE ( 'NONE', #841, 1.139999999999997500 ) ;
#599 = CIRCLE ( 'NONE', #481, 0.2349999999999991000 ) ;
#600 = AXIS2_PLACEMENT_3D ( 'NONE', #896, #173, #548 ) ;
#601 = DIRECTION ( 'NONE',  ( 1.000000000000000000, -1.209002422555778400E-016, 0.0000000000000000000 ) ) ;
#602 = CARTESIAN_POINT ( 'NONE',  ( 4.405000000000001100, 0.4399999999999990000, 1.396097351027982500E-016 ) ) ;
#603 = CARTESIAN_POINT ( 'NONE',  ( -3.939999999999999100, 1.140000000000000100, -0.2349999999999987400 ) ) ;
#604 = CIRCLE ( 'NONE', #387, 0.8399999999999974200 ) ;
#605 = CARTESIAN_POINT ( 'NONE',  ( 4.874999999999994700, -19.61999999999999700, 1.108305353228356100E-016 ) ) ;
#606 = EDGE_CURVE ( 'NONE', #492, #147, #46, .T. ) ;
#607 = VERTEX_POINT ( 'NONE', #605 ) ;
#608 = DIRECTION ( 'NONE',  ( -1.000000000000000000, -1.226875975435321500E-016, -0.0000000000000000000 ) ) ;
#609 = SURFACE_STYLE_FILL_AREA ( #797 ) ;
#610 = EDGE_LOOP ( 'NONE', ( #527, #96 ) ) ;
#611 = PLANE ( 'NONE',  #588 ) ;
#612 = FACE_BOUND ( 'NONE', #610, .T. ) ;
#613 = ORIENTED_EDGE ( 'NONE', *, *, #69, .F. ) ;
#614 = DIRECTION ( 'NONE',  ( 0.0000000000000000000, -1.000000000000000000, 0.0000000000000000000 ) ) ;
#615 = DIRECTION ( 'NONE',  ( 0.0000000000000000000, 0.0000000000000000000, 1.000000000000000000 ) ) ;
#616 = PLANE ( 'NONE',  #650 ) ;
#617 = ORIENTED_EDGE ( 'NONE', *, *, #27, .F. ) ;
#618 = CARTESIAN_POINT ( 'NONE',  ( 3.939999999999999100, 0.4399999999999992300, 1.396097351027982500E-016 ) ) ;
#619 = AXIS2_PLACEMENT_3D ( 'NONE', #167, #233, #379 ) ;
#620 = EDGE_CURVE ( 'NONE', #589, #607, #805, .T. ) ;
#621 = AXIS2_PLACEMENT_3D ( 'NONE', #407, #120, #190 ) ;
#622 = AXIS2_PLACEMENT_3D ( 'NONE', #282, #645, #702 ) ;
#623 = EDGE_LOOP ( 'NONE', ( #361, #684 ) ) ;
#624 = CARTESIAN_POINT ( 'NONE',  ( 4.874999999999999100, 0.4399999999999989500, 1.108305353228355900E-016 ) ) ;
#625 = VECTOR ( 'NONE', #505, 1000.000000000000000 ) ;
#626 = CIRCLE ( 'NONE', #532, 0.2349999999999988800 ) ;
#627 = FACE_OUTER_BOUND ( 'NONE', #757, .T. ) ;
#628 = FACE_OUTER_BOUND ( 'NONE', #875, .T. ) ;
#629 = ADVANCED_FACE ( 'NONE', ( #146 ), #439, .T. ) ;
#630 = DIRECTION ( 'NONE',  ( 0.0000000000000000000, -1.000000000000000000, 0.0000000000000000000 ) ) ;
#631 = DIRECTION ( 'NONE',  ( -1.000000000000000000, -1.226875975435321700E-016, -0.0000000000000000000 ) ) ;
#632 =( NAMED_UNIT ( * ) PLANE_ANGLE_UNIT ( ) SI_UNIT ( $, .RADIAN. ) );
#633 = ORIENTED_EDGE ( 'NONE', *, *, #149, .F. ) ;
#634 = CARTESIAN_POINT ( 'NONE',  ( -1.794999999999997900, 1.980000000000000000, 1.028703311283773600E-016 ) ) ;
#635 = AXIS2_PLACEMENT_3D ( 'NONE', #905, #121, #852 ) ;
#636 = EDGE_LOOP ( 'NONE', ( #549, #675 ) ) ;
#637 = PLANE ( 'NONE',  #97 ) ;
#638 = COLOUR_RGB ( '',0.9098039215686274400, 0.4431372549019607600, 0.03137254901960784300 ) ;
#639 = ORIENTED_EDGE ( 'NONE', *, *, #8, .T. ) ;
#640 = ORIENTED_EDGE ( 'NONE', *, *, #767, .F. ) ;
#641 = DIRECTION ( 'NONE',  ( 0.0000000000000000000, -1.000000000000000000, 0.0000000000000000000 ) ) ;
#642 = AXIS2_PLACEMENT_3D ( 'NONE', #736, #879, #729 ) ;
#643 = DIRECTION ( 'NONE',  ( 0.0000000000000000000, -1.000000000000000000, 0.0000000000000000000 ) ) ;
#644 = CARTESIAN_POINT ( 'NONE',  ( -4.874999999999999100, 0.4399999999999989500, 1.683889348827609300E-016 ) ) ;
#645 = DIRECTION ( 'NONE',  ( 1.000000000000000000, 1.226875975435321500E-016, 0.0000000000000000000 ) ) ;
#646 = ORIENTED_EDGE ( 'NONE', *, *, #717, .F. ) ;
#647 = APPLICATION_PROTOCOL_DEFINITION ( 'draft international standard', 'automotive_design', 1998, #64 ) ;
#648 = FACE_OUTER_BOUND ( 'NONE', #840, .T. ) ;
#649 = DIRECTION ( 'NONE',  ( -1.000000000000000000, -1.226875975435321500E-016, -0.0000000000000000000 ) ) ;
#650 = AXIS2_PLACEMENT_3D ( 'NONE', #38, #35, #116 ) ;
#651 =( NAMED_UNIT ( * ) SI_UNIT ( $, .STERADIAN. ) SOLID_ANGLE_UNIT ( ) );
#652 = DIRECTION ( 'NONE',  ( 0.0000000000000000000, -1.000000000000000000, 0.0000000000000000000 ) ) ;
#653 = ORIENTED_EDGE ( 'NONE', *, *, #663, .F. ) ;
#654 = DIRECTION ( 'NONE',  ( 2.161918589203399000E-016, -1.000000000000000000, 0.0000000000000000000 ) ) ;
#655 = EDGE_CURVE ( 'NONE', #174, #877, #90, .T. ) ;
#656 = CIRCLE ( 'NONE', #16, 0.4650000000000018600 ) ;
#657 = ORIENTED_EDGE ( 'NONE', *, *, #122, .F. ) ;
#658 = VECTOR ( 'NONE', #544, 1000.000000000000000 ) ;
#659 = ORIENTED_EDGE ( 'NONE', *, *, #717, .T. ) ;
#660 =( GEOMETRIC_REPRESENTATION_CONTEXT ( 3 ) GLOBAL_UNCERTAINTY_ASSIGNED_CONTEXT ( ( #828 ) ) GLOBAL_UNIT_ASSIGNED_CONTEXT ( ( #667, #815, #28 ) ) REPRESENTATION_CONTEXT ( 'NONE', 'WORKASPACE' ) );
#661 = ORIENTED_EDGE ( 'NONE', *, *, #118, .F. ) ;
#662 = EDGE_CURVE ( 'NONE', #843, #871, #325, .T. ) ;
#663 = EDGE_CURVE ( 'NONE', #58, #513, #793, .T. ) ;
#664 = PRESENTATION_LAYER_ASSIGNMENT (  '', '', ( #231 ) ) ;
#665 = CARTESIAN_POINT ( 'NONE',  ( -1.995000000000000300, 4.770489558936219500E-015, 0.0000000000000000000 ) ) ;
#666 = CARTESIAN_POINT ( 'NONE',  ( 1.995000000000000300, 1.140000000000000100, 0.2349999999999990200 ) ) ;
#667 =( LENGTH_UNIT ( ) NAMED_UNIT ( * ) SI_UNIT ( .MILLI., .METRE. ) );
#668 = CARTESIAN_POINT ( 'NONE',  ( 4.639999999999999700, 0.4399999999999990000, 1.396097351027982500E-016 ) ) ;
#669 = MANIFOLD_SOLID_BREP ( 'Split1', #249 ) ;
#670 = CARTESIAN_POINT ( 'NONE',  ( -4.874999999999999100, 0.4399999999999990000, 1.683889348827611200E-016 ) ) ;
#671 = DIRECTION ( 'NONE',  ( -1.000000000000000000, 1.209002422555778400E-016, -0.0000000000000000000 ) ) ;
#672 = ORIENTED_EDGE ( 'NONE', *, *, #917, .F. ) ;
#673 = AXIS2_PLACEMENT_3D ( 'NONE', #674, #816, #456 ) ;
#674 = CARTESIAN_POINT ( 'NONE',  ( -4.639999999999996100, -19.61999999999999700, 1.396097351027982500E-016 ) ) ;
#675 = ORIENTED_EDGE ( 'NONE', *, *, #255, .T. ) ;
#676 = DIRECTION ( 'NONE',  ( -1.000000000000000000, -1.226875975435321700E-016, -0.0000000000000000000 ) ) ;
#677 = CARTESIAN_POINT ( 'NONE',  ( -1.995000000000000300, 1.140000000000000100, -0.2349999999999987400 ) ) ;
#678 = EDGE_CURVE ( 'NONE', #13, #266, #906, .T. ) ;
#679 = ADVANCED_FACE ( 'NONE', ( #517 ), #172, .T. ) ;
#680 = ORIENTED_EDGE ( 'NONE', *, *, #82, .F. ) ;
#681 = DIRECTION ( 'NONE',  ( -1.226875975435321500E-016, 1.000000000000000000, 0.0000000000000000000 ) ) ;
#682 = CYLINDRICAL_SURFACE ( 'NONE', #915, 0.2349999999999988800 ) ;
#683 = ADVANCED_FACE ( 'NONE', ( #426 ), #616, .T. ) ;
#684 = ORIENTED_EDGE ( 'NONE', *, *, #294, .F. ) ;
#685 = DIRECTION ( 'NONE',  ( -1.000000000000000000, -1.226875975435321700E-016, -0.0000000000000000000 ) ) ;
#686 = CIRCLE ( 'NONE', #322, 0.2349999999999988800 ) ;
#687 = ORIENTED_EDGE ( 'NONE', *, *, #205, .F. ) ;
#688 = ORIENTED_EDGE ( 'NONE', *, *, #575, .T. ) ;
#689 = DIRECTION ( 'NONE',  ( -1.000000000000000000, -1.226875975435321700E-016, -0.0000000000000000000 ) ) ;
#690 = CYLINDRICAL_SURFACE ( 'NONE', #573, 1.139999999999997500 ) ;
#691 = LINE ( 'NONE', #666, #848 ) ;
#692 = CARTESIAN_POINT ( 'NONE',  ( -3.939999999999999100, 0.9050000000000012500, 1.108305353228355900E-016 ) ) ;
#693 = EDGE_CURVE ( 'NONE', #444, #763, #214, .T. ) ;
#694 = UNCERTAINTY_MEASURE_WITH_UNIT (LENGTH_MEASURE( 1.000000000000000100E-005 ), #353, 'distance_accuracy_value', 'NONE');
#695 = AXIS2_PLACEMENT_3D ( 'NONE', #447, #807, #94 ) ;
#696 = VERTEX_POINT ( 'NONE', #106 ) ;
#697 = DIRECTION ( 'NONE',  ( 0.0000000000000000000, -1.000000000000000000, 0.0000000000000000000 ) ) ;
#698 = DIRECTION ( 'NONE',  ( -1.000000000000000000, 3.370921011759177100E-016, 0.0000000000000000000 ) ) ;
#699 = ORIENTED_EDGE ( 'NONE', *, *, #781, .T. ) ;
#700 = DIRECTION ( 'NONE',  ( 0.0000000000000000000, -1.000000000000000000, 0.0000000000000000000 ) ) ;
#701 = DIRECTION ( 'NONE',  ( -1.000000000000000000, -1.226875975435321500E-016, -0.0000000000000000000 ) ) ;
#702 = DIRECTION ( 'NONE',  ( -1.226875975435321500E-016, 1.000000000000000000, 0.0000000000000000000 ) ) ;
#703 = FACE_OUTER_BOUND ( 'NONE', #623, .T. ) ;
#704 = DIRECTION ( 'NONE',  ( -1.000000000000000000, -1.226875975435321700E-016, -0.0000000000000000000 ) ) ;
#705 = AXIS2_PLACEMENT_3D ( 'NONE', #360, #710, #860 ) ;
#706 = CARTESIAN_POINT ( 'NONE',  ( -4.405000000000001100, 0.4399999999999990600, 1.396097351027982500E-016 ) ) ;
#707 = EDGE_CURVE ( 'NONE', #528, #59, #224, .T. ) ;
#708 = AXIS2_PLACEMENT_3D ( 'NONE', #91, #873, #217 ) ;
#709 = PRESENTATION_LAYER_ASSIGNMENT (  '', '', ( #870 ) ) ;
#710 = DIRECTION ( 'NONE',  ( 2.161918589203399000E-016, -1.000000000000000000, 0.0000000000000000000 ) ) ;
#711 = CARTESIAN_POINT ( 'NONE',  ( -3.939999999999999100, 1.374999999999999100, 1.396097351027982500E-016 ) ) ;
#712 = PLANE ( 'NONE',  #622 ) ;
#713 = ORIENTED_EDGE ( 'NONE', *, *, #751, .F. ) ;
#714 = EDGE_LOOP ( 'NONE', ( #576, #183 ) ) ;
#715 = ORIENTED_EDGE ( 'NONE', *, *, #486, .T. ) ;
#716 = CARTESIAN_POINT ( 'NONE',  ( -1.295000000000001000, 1.140000000000002600, 0.0000000000000000000 ) ) ;
#717 = EDGE_CURVE ( 'NONE', #332, #467, #473, .T. ) ;
#718 = APPLICATION_PROTOCOL_DEFINITION ( 'draft international standard', 'automotive_design', 1998, #786 ) ;
#719 = VECTOR ( 'NONE', #608, 1000.000000000000000 ) ;
#720 = LINE ( 'NONE', #382, #822 ) ;
#721 = CARTESIAN_POINT ( 'NONE',  ( -1.995000000000000300, 1.140000000000000100, -0.2349999999999987400 ) ) ;
#722 = FACE_OUTER_BOUND ( 'NONE', #416, .T. ) ;
#723 = EDGE_LOOP ( 'NONE', ( #509, #23, #109, #646 ) ) ;
#724 = DIRECTION ( 'NONE',  ( 1.000000000000000000, 0.0000000000000000000, 0.0000000000000000000 ) ) ;
#725 = AXIS2_PLACEMENT_3D ( 'NONE', #222, #882, #19 ) ;
#726 = ORIENTED_EDGE ( 'NONE', *, *, #471, .F. ) ;
#727 = AXIS2_PLACEMENT_3D ( 'NONE', #716, #71, #585 ) ;
#728 = CARTESIAN_POINT ( 'NONE',  ( -27.39500000000000000, 1.139999999999999200, 0.0000000000000000000 ) ) ;
#729 = DIRECTION ( 'NONE',  ( 1.226875975435321500E-016, -1.000000000000000000, 0.0000000000000000000 ) ) ;
#730 = AXIS2_PLACEMENT_3D ( 'NONE', #777, #568, #772 ) ;
#731 = SHAPE_DEFINITION_REPRESENTATION ( #50, #405 ) ;
#732 = EDGE_LOOP ( 'NONE', ( #785, #288, #463, #140, #595 ) ) ;
#733 = CIRCLE ( 'NONE', #635, 0.2349999999999991000 ) ;
#734 = CYLINDRICAL_SURFACE ( 'NONE', #829, 0.2349999999999988800 ) ;
#735 = VERTEX_POINT ( 'NONE', #894 ) ;
#736 = CARTESIAN_POINT ( 'NONE',  ( -1.794999999999999300, 2.279999999999999800, 0.0000000000000000000 ) ) ;
#737 = VERTEX_POINT ( 'NONE', #110 ) ;
#738 = ORIENTED_EDGE ( 'NONE', *, *, #343, .T. ) ;
#739 = DIRECTION ( 'NONE',  ( 1.000000000000000000, 0.0000000000000000000, 0.0000000000000000000 ) ) ;
#740 = CARTESIAN_POINT ( 'NONE',  ( -27.39500000000000000, 1.139999999999999200, 0.0000000000000000000 ) ) ;
#741 = ORIENTED_EDGE ( 'NONE', *, *, #367, .T. ) ;
#742 = DIRECTION ( 'NONE',  ( -1.000000000000000000, -1.226875975435321700E-016, -0.0000000000000000000 ) ) ;
#743 = AXIS2_PLACEMENT_3D ( 'NONE', #780, #260, #773 ) ;
#744 = CARTESIAN_POINT ( 'NONE',  ( -1.794999999999997900, 0.3000000000000048200, 0.0000000000000000000 ) ) ;
#745 = LINE ( 'NONE', #624, #32 ) ;
#746 = DIRECTION ( 'NONE',  ( 1.902109074535977000E-016, -1.000000000000000000, 0.0000000000000000000 ) ) ;
#747 = FACE_OUTER_BOUND ( 'NONE', #863, .T. ) ;
#748 = PRODUCT_DEFINITION_CONTEXT ( 'detailed design', #64, 'design' ) ;
#749 = CIRCLE ( 'NONE', #730, 0.9350000000000000500 ) ;
#750 = DIRECTION ( 'NONE',  ( 0.0000000000000000000, -1.000000000000000000, 0.0000000000000000000 ) ) ;
#751 = EDGE_CURVE ( 'NONE', #581, #607, #745, .T. ) ;
#752 = EDGE_CURVE ( 'NONE', #461, #589, #878, .T. ) ;
#753 = DIRECTION ( 'NONE',  ( 0.0000000000000000000, -1.000000000000000000, 0.0000000000000000000 ) ) ;
#754 = CARTESIAN_POINT ( 'NONE',  ( -1.995000000000000300, 1.140000000000000100, 1.396097351027982500E-016 ) ) ;
#755 = ADVANCED_FACE ( 'NONE', ( #114, #812 ), #611, .F. ) ;
#756 = CARTESIAN_POINT ( 'NONE',  ( -27.39500000000000000, 0.3000000000000017700, 0.0000000000000000000 ) ) ;
#757 = EDGE_LOOP ( 'NONE', ( #713, #150, #587, #570 ) ) ;
#758 = CARTESIAN_POINT ( 'NONE',  ( -1.295000000000001000, 1.140000000000002600, 0.0000000000000000000 ) ) ;
#759 = FACE_OUTER_BOUND ( 'NONE', #553, .T. ) ;
#760 = UNCERTAINTY_MEASURE_WITH_UNIT (LENGTH_MEASURE( 1.000000000000000100E-005 ), #204, 'distance_accuracy_value', 'NONE');
#761 = ADVANCED_FACE ( 'NONE', ( #886 ), #400, .T. ) ;
#762 = CARTESIAN_POINT ( 'NONE',  ( -1.794999999999997900, 1.140000000000002300, 0.0000000000000000000 ) ) ;
#763 = VERTEX_POINT ( 'NONE', #677 ) ;
#764 = AXIS2_PLACEMENT_3D ( 'NONE', #132, #420, #923 ) ;
#765 = EDGE_CURVE ( 'NONE', #763, #444, #493, .T. ) ;
#766 = EDGE_CURVE ( 'NONE', #507, #528, #251, .T. ) ;
#767 = EDGE_CURVE ( 'NONE', #467, #887, #278, .T. ) ;
#768 = CYLINDRICAL_SURFACE ( 'NONE', #374, 1.139999999999997500 ) ;
#769 = SURFACE_STYLE_USAGE ( .BOTH. , #125 ) ;
#770 = DIRECTION ( 'NONE',  ( -1.000000000000000000, -1.226875975435321700E-016, -0.0000000000000000000 ) ) ;
#771 = AXIS2_PLACEMENT_3D ( 'NONE', #327, #831, #469 ) ;
#772 = DIRECTION ( 'NONE',  ( 1.000000000000000000, 0.0000000000000000000, 0.0000000000000000000 ) ) ;
#773 = DIRECTION ( 'NONE',  ( 1.000000000000000000, 0.0000000000000000000, 0.0000000000000000000 ) ) ;
#774 = LINE ( 'NONE', #706, #914 ) ;
#775 = FACE_OUTER_BOUND ( 'NONE', #417, .T. ) ;
#776 = ORIENTED_EDGE ( 'NONE', *, *, #606, .F. ) ;
#777 = CARTESIAN_POINT ( 'NONE',  ( 3.939999999999999100, 0.4399999999999992300, 1.396097351027982500E-016 ) ) ;
#778 = ORIENTED_EDGE ( 'NONE', *, *, #205, .T. ) ;
#779 = PRESENTATION_LAYER_ASSIGNMENT (  '', '', ( #885 ) ) ;
#780 = CARTESIAN_POINT ( 'NONE',  ( -3.939999999999999100, 0.4399999999999992300, 1.108305353228355900E-016 ) ) ;
#781 = EDGE_CURVE ( 'NONE', #904, #696, #526, .T. ) ;
#782 = DIRECTION ( 'NONE',  ( 1.902109074535977000E-016, -1.000000000000000000, 0.0000000000000000000 ) ) ;
#783 =( NAMED_UNIT ( * ) PLANE_ANGLE_UNIT ( ) SI_UNIT ( $, .RADIAN. ) );
#784 = ORIENTED_EDGE ( 'NONE', *, *, #486, .F. ) ;
#785 = ORIENTED_EDGE ( 'NONE', *, *, #157, .T. ) ;
#786 = APPLICATION_CONTEXT ( 'automotive_design' ) ;
#787 = ORIENTED_EDGE ( 'NONE', *, *, #72, .T. ) ;
#788 = CARTESIAN_POINT ( 'NONE',  ( -3.939999999999999100, 1.140000000000000100, 1.396097351027982500E-016 ) ) ;
#789 = DIRECTION ( 'NONE',  ( -1.000000000000000000, -1.226875975435321700E-016, -0.0000000000000000000 ) ) ;
#790 = LINE ( 'NONE', #721, #625 ) ;
#791 = ORIENTED_EDGE ( 'NONE', *, *, #367, .F. ) ;
#792 = CYLINDRICAL_SURFACE ( 'NONE', #175, 1.139999999999997500 ) ;
#793 = LINE ( 'NONE', #811, #494 ) ;
#794 = VERTEX_POINT ( 'NONE', #834 ) ;
#795 = PLANE ( 'NONE',  #66 ) ;
#796 = AXIS2_PLACEMENT_3D ( 'NONE', #591, #522, #297 ) ;
#797 = FILL_AREA_STYLE ('',( #580 ) ) ;
#798 = DIRECTION ( 'NONE',  ( 1.000000000000000000, 0.0000000000000000000, 0.0000000000000000000 ) ) ;
#799 =( NAMED_UNIT ( * ) PLANE_ANGLE_UNIT ( ) SI_UNIT ( $, .RADIAN. ) );
#800 = CLOSED_SHELL ( 'NONE', ( #537, #629, #243, #468, #232, #113, #108, #478 ) ) ;
#801 = ORIENTED_EDGE ( 'NONE', *, *, #802, .T. ) ;
#802 = EDGE_CURVE ( 'NONE', #579, #188, #626, .T. ) ;
#803 = EDGE_CURVE ( 'NONE', #877, #804, #88, .T. ) ;
#804 = VERTEX_POINT ( 'NONE', #347 ) ;
#805 = CIRCLE ( 'NONE', #619, 0.2349999999999991000 ) ;
#806 = CYLINDRICAL_SURFACE ( 'NONE', #593, 0.2349999999999988800 ) ;
#807 = DIRECTION ( 'NONE',  ( -1.000000000000000000, -1.226875975435321700E-016, -0.0000000000000000000 ) ) ;
#808 = CARTESIAN_POINT ( 'NONE',  ( 1.995000000000000300, 1.140000000000000100, 1.396097351027982500E-016 ) ) ;
#809 = EDGE_CURVE ( 'NONE', #804, #555, #733, .T. ) ;
#810 = STYLED_ITEM ( 'NONE', ( #918 ), #881 ) ;
#811 = CARTESIAN_POINT ( 'NONE',  ( -27.39500000000000000, 1.734723475976807100E-015, 0.0000000000000000000 ) ) ;
#812 = FACE_OUTER_BOUND ( 'NONE', #26, .T. ) ;
#813 = PLANE ( 'NONE',  #673 ) ;
#814 = EDGE_LOOP ( 'NONE', ( #868, #453, #162, #265 ) ) ;
#815 =( NAMED_UNIT ( * ) PLANE_ANGLE_UNIT ( ) SI_UNIT ( $, .RADIAN. ) );
#816 = DIRECTION ( 'NONE',  ( 3.370921011759177100E-016, -1.000000000000000000, 0.0000000000000000000 ) ) ;
#817 = DIRECTION ( 'NONE',  ( 0.0000000000000000000, -1.000000000000000000, 0.0000000000000000000 ) ) ;
#818 = AXIS2_PLACEMENT_3D ( 'NONE', #477, #179, #681 ) ;
#819 = FACE_BOUND ( 'NONE', #714, .T. ) ;
#820 = DIRECTION ( 'NONE',  ( -1.000000000000000000, -1.226875975435321500E-016, -0.0000000000000000000 ) ) ;
#821 = MECHANICAL_DESIGN_GEOMETRIC_PRESENTATION_REPRESENTATION (  '', ( #810 ), #375 ) ;
#822 = VECTOR ( 'NONE', #445, 1000.000000000000000 ) ;
#823 = LINE ( 'NONE', #112, #153 ) ;
#824 = CARTESIAN_POINT ( 'NONE',  ( -1.794999999999997900, 1.140000000000002300, 0.0000000000000000000 ) ) ;
#825 = DIRECTION ( 'NONE',  ( -1.000000000000000000, -1.226875975435321700E-016, -0.0000000000000000000 ) ) ;
#826 = DIRECTION ( 'NONE',  ( -2.161918589203399000E-016, -1.000000000000000000, 0.0000000000000000000 ) ) ;
#827 = AXIS2_PLACEMENT_3D ( 'NONE', #349, #419, #208 ) ;
#828 = UNCERTAINTY_MEASURE_WITH_UNIT (LENGTH_MEASURE( 1.000000000000000100E-005 ), #667, 'distance_accuracy_value', 'NONE');
#829 = AXIS2_PLACEMENT_3D ( 'NONE', #808, #739, #159 ) ;
#830 = ADVANCED_FACE ( 'NONE', ( #151 ), #598, .T. ) ;
#831 = DIRECTION ( 'NONE',  ( -1.000000000000000000, -1.226875975435321700E-016, -0.0000000000000000000 ) ) ;
#832 = ORIENTED_EDGE ( 'NONE', *, *, #538, .T. ) ;
#833 = ORIENTED_EDGE ( 'NONE', *, *, #901, .T. ) ;
#834 = CARTESIAN_POINT ( 'NONE',  ( 1.995000000000000300, 1.140000000000000100, -0.2349999999999987400 ) ) ;
#835 = ORIENTED_EDGE ( 'NONE', *, *, #847, .F. ) ;
#836 = CYLINDRICAL_SURFACE ( 'NONE', #499, 0.8399999999999975300 ) ;
#837 = ADVANCED_FACE ( 'NONE', ( #775 ), #792, .T. ) ;
#838 = DIRECTION ( 'NONE',  ( -1.000000000000000000, -1.209002422555778400E-016, 0.0000000000000000000 ) ) ;
#839 = MANIFOLD_SOLID_BREP ( 'Mirror1', #800 ) ;
#840 = EDGE_LOOP ( 'NONE', ( #84, #338, #726, #126, #391 ) ) ;
#841 = AXIS2_PLACEMENT_3D ( 'NONE', #413, #685, #418 ) ;
#842 = CARTESIAN_POINT ( 'NONE',  ( 1.995000000000000300, 1.140000000000000100, 1.396097351027982500E-016 ) ) ;
#843 = VERTEX_POINT ( 'NONE', #196 ) ;
#844 = CARTESIAN_POINT ( 'NONE',  ( 1.995000000000000300, 1.140000000000003000, 0.0000000000000000000 ) ) ;
#845 = EDGE_CURVE ( 'NONE', #59, #212, #43, .T. ) ;
#846 = CIRCLE ( 'NONE', #254, 0.2349999999999988800 ) ;
#847 = EDGE_CURVE ( 'NONE', #266, #13, #161, .T. ) ;
#848 = VECTOR ( 'NONE', #596, 1000.000000000000000 ) ;
#849 = CLOSED_SHELL ( 'NONE', ( #551, #889, #543, #384, #396, #34, #466, #185 ) ) ;
#850 = DIRECTION ( 'NONE',  ( -1.000000000000000000, -1.209002422555778400E-016, 0.0000000000000000000 ) ) ;
#851 = FILL_AREA_STYLE_COLOUR ( '', #567 ) ;
#852 = DIRECTION ( 'NONE',  ( 1.000000000000000000, 0.0000000000000000000, 0.0000000000000000000 ) ) ;
#853 = EDGE_LOOP ( 'NONE', ( #24, #78 ) ) ;
#854 = SURFACE_SIDE_STYLE ('',( #323 ) ) ;
#855 = ORIENTED_EDGE ( 'NONE', *, *, #655, .T. ) ;
#856 = FACE_OUTER_BOUND ( 'NONE', #263, .T. ) ;
#857 = AXIS2_PLACEMENT_3D ( 'NONE', #824, #676, #143 ) ;
#858 = FILL_AREA_STYLE ('',( #410 ) ) ;
#859 = EDGE_CURVE ( 'NONE', #316, #794, #686, .T. ) ;
#860 = DIRECTION ( 'NONE',  ( 1.000000000000000000, 2.306813132947890400E-016, 0.0000000000000000000 ) ) ;
#861 = CARTESIAN_POINT ( 'NONE',  ( -1.295000000000000800, 5.204170427930421300E-015, 0.0000000000000000000 ) ) ;
#862 = EDGE_CURVE ( 'NONE', #903, #583, #22, .T. ) ;
#863 = EDGE_LOOP ( 'NONE', ( #801, #738, #437, #187, #741 ) ) ;
#864 = DIRECTION ( 'NONE',  ( 0.0000000000000000000, 0.0000000000000000000, 1.000000000000000000 ) ) ;
#865 = PRODUCT ( '1N914B R0', '1N914B R0', '', ( #5 ) ) ;
#866 = CARTESIAN_POINT ( 'NONE',  ( -27.39500000000000000, 1.139999999999999200, 0.0000000000000000000 ) ) ;
#867 = FACE_OUTER_BOUND ( 'NONE', #732, .T. ) ;
#868 = ORIENTED_EDGE ( 'NONE', *, *, #809, .T. ) ;
#869 = STYLED_ITEM ( 'NONE', ( #184 ), #839 ) ;
#870 = STYLED_ITEM ( 'NONE', ( #436 ), #405 ) ;
#871 = VERTEX_POINT ( 'NONE', #485 ) ;
#872 = AXIS2_PLACEMENT_3D ( 'NONE', #888, #601, #29 ) ;
#873 = DIRECTION ( 'NONE',  ( -3.398578238520849200E-017, 1.000000000000000000, -0.0000000000000000000 ) ) ;
#874 = EDGE_CURVE ( 'NONE', #794, #316, #68, .T. ) ;
#875 = EDGE_LOOP ( 'NONE', ( #440, #372, #239, #688, #211 ) ) ;
#876 = ORIENTED_EDGE ( 'NONE', *, *, #37, .T. ) ;
#877 = VERTEX_POINT ( 'NONE', #692 ) ;
#878 = LINE ( 'NONE', #899, #301 ) ;
#879 = DIRECTION ( 'NONE',  ( -1.000000000000000000, -1.226875975435321500E-016, 0.0000000000000000000 ) ) ;
#880 = FACE_OUTER_BOUND ( 'NONE', #560, .T. ) ;
#881 = MANIFOLD_SOLID_BREP ( 'Sweep1', #849 ) ;
#882 = DIRECTION ( 'NONE',  ( -1.000000000000000000, -1.226875975435321700E-016, -0.0000000000000000000 ) ) ;
#883 = ORIENTED_EDGE ( 'NONE', *, *, #54, .F. ) ;
#884 = ORIENTED_EDGE ( 'NONE', *, *, #194, .T. ) ;
#885 = STYLED_ITEM ( 'NONE', ( #163 ), #669 ) ;
#886 = FACE_OUTER_BOUND ( 'NONE', #380, .T. ) ;
#887 = VERTEX_POINT ( 'NONE', #634 ) ;
#888 = CARTESIAN_POINT ( 'NONE',  ( 1.995000000000000300, 1.140000000000000100, 1.396097351027982500E-016 ) ) ;
#889 = ADVANCED_FACE ( 'NONE', ( #446 ), #250, .T. ) ;
#890 = CIRCLE ( 'NONE', #345, 0.8399999999999974200 ) ;
#891 = DIRECTION ( 'NONE',  ( -2.161918589203399000E-016, -1.000000000000000000, 0.0000000000000000000 ) ) ;
#892 = EDGE_CURVE ( 'NONE', #435, #556, #206, .T. ) ;
#893 = ADVANCED_FACE ( 'NONE', ( #819, #392 ), #712, .F. ) ;
#894 = CARTESIAN_POINT ( 'NONE',  ( -1.995000000000000300, 2.279999999999999800, 1.396097351027979800E-016 ) ) ;
#895 = CARTESIAN_POINT ( 'NONE',  ( -1.794999999999997700, 4.770489558936219500E-015, 0.0000000000000000000 ) ) ;
#896 = CARTESIAN_POINT ( 'NONE',  ( -1.995000000000000300, 1.140000000000000100, 1.396097351027982500E-016 ) ) ;
#897 = CARTESIAN_POINT ( 'NONE',  ( -27.39500000000000000, 1.951563910473908000E-015, 0.0000000000000000000 ) ) ;
#898 = CIRCLE ( 'NONE', #275, 0.2349999999999991000 ) ;
#899 = CARTESIAN_POINT ( 'NONE',  ( 4.405000000000001100, 0.4399999999999990600, 1.396097351027982500E-016 ) ) ;
#900 = MECHANICAL_DESIGN_GEOMETRIC_PRESENTATION_REPRESENTATION (  '', ( #885 ), #660 ) ;
#901 = EDGE_CURVE ( 'NONE', #804, #583, #774, .T. ) ;
#902 = ADVANCED_FACE ( 'NONE', ( #195 ), #460, .T. ) ;
#903 = VERTEX_POINT ( 'NONE', #489 ) ;
#904 = VERTEX_POINT ( 'NONE', #861 ) ;
#905 = CARTESIAN_POINT ( 'NONE',  ( -4.639999999999999700, 0.4399999999999990000, 1.396097351027982500E-016 ) ) ;
#906 = CIRCLE ( 'NONE', #771, 1.139999999999997500 ) ;
#907 = ORIENTED_EDGE ( 'NONE', *, *, #592, .T. ) ;
#908 = CARTESIAN_POINT ( 'NONE',  ( -27.39500000000000000, 1.139999999999999200, 0.0000000000000000000 ) ) ;
#909 = CYLINDRICAL_SURFACE ( 'NONE', #189, 0.2349999999999991000 ) ;
#910 = TOROIDAL_SURFACE ( 'NONE', #324, 0.7000000000000009500, 0.2349999999999988800 ) ;
#911 = AXIS2_PLACEMENT_3D ( 'NONE', #155, #891, #449 ) ;
#912 =( GEOMETRIC_REPRESENTATION_CONTEXT ( 3 ) GLOBAL_UNCERTAINTY_ASSIGNED_CONTEXT ( ( #694 ) ) GLOBAL_UNIT_ASSIGNED_CONTEXT ( ( #353, #799, #574 ) ) REPRESENTATION_CONTEXT ( 'NONE', 'WORKASPACE' ) );
#913 = DIRECTION ( 'NONE',  ( 1.209002422555778400E-016, -1.000000000000000000, 0.0000000000000000000 ) ) ;
#914 = VECTOR ( 'NONE', #654, 1000.000000000000000 ) ;
#915 = AXIS2_PLACEMENT_3D ( 'NONE', #85, #597, #160 ) ;
#916 = ORIENTED_EDGE ( 'NONE', *, *, #678, .F. ) ;
#917 = EDGE_CURVE ( 'NONE', #763, #174, #790, .T. ) ;
#918 = PRESENTATION_STYLE_ASSIGNMENT (( #1 ) ) ;
#919 = AXIS2_PLACEMENT_3D ( 'NONE', #202, #850, #913 ) ;
#920 = CIRCLE ( 'NONE', #455, 1.139999999999997500 ) ;
#921 = MANIFOLD_SOLID_BREP ( 'Revolve2', #926 ) ;
#922 = DIRECTION ( 'NONE',  ( 1.902109074535977000E-016, -1.000000000000000000, 0.0000000000000000000 ) ) ;
#923 = DIRECTION ( 'NONE',  ( 0.0000000000000000000, 0.0000000000000000000, 1.000000000000000000 ) ) ;
#924 = DIRECTION ( 'NONE',  ( 2.161918589203399000E-016, -1.000000000000000000, 0.0000000000000000000 ) ) ;
#925 = ORIENTED_EDGE ( 'NONE', *, *, #765, .F. ) ;
#926 = CLOSED_SHELL ( 'NONE', ( #44, #103, #755, #458, #318, #181 ) ) ;
#927 = CARTESIAN_POINT ( 'NONE',  ( -1.794999999999998200, 2.279999999999999800, 1.396097351027979800E-016 ) ) ;
ENDSEC;
END-ISO-10303-21;
